<?xml version="1.0" encoding="UTF-8"?>
<svg xmlns="http://www.w3.org/2000/svg" xmlns:xlink="http://www.w3.org/1999/xlink" width="26.024mm" height="35.207mm" viewBox="189.668365 -205.056122 26.023849 35.207443">
    <path transform="matrix(0.01828,0,0,-0.01828,188.644684,-168.733597)" style="stroke:#000000;stroke-width:0.05mm;fill:none" d="M280.747223,1919.247192L212.999985,1851.494507L280.752716,1783.747192L348.505463,1716L607.005493,1716L865.505493,1716L933.252747,1783.752808L1001,1851.505493L933.247253,1919.252808L865.494507,1987L606.994507,1987L348.494476,1987L280.747223,1919.247192z"/>
    <path transform="matrix(0.01828,0,0,-0.01828,188.644684,-168.733597)" style="stroke:#000000;stroke-width:0.05mm;fill:none" d="M123.747246,1761.247314L56,1693.494507L56,1434.994507L56,1176.494507L123.752754,1108.747192L191.505508,1041L258.752747,1108.252686L326,1175.505493L326,1435.005493L326,1694.505615L258.747253,1761.752808L191.494492,1829L123.747246,1761.247314z"/>
    <path transform="matrix(0.01828,0,0,-0.01828,188.644684,-168.733597)" style="stroke:#000000;stroke-width:0.05mm;fill:none" d="M955.747253,1761.247314L888,1693.494507L888,1434.994507L888,1176.494507L955.752747,1108.747192L1023.505493,1041L1090.752808,1108.252686L1158,1175.505493L1158,1435.005493L1158,1694.505615L1090.747192,1761.752808L1023.494507,1829L955.747253,1761.247314z"/>
    <path transform="matrix(0.01828,0,0,-0.01828,188.644684,-168.733597)" style="stroke:#000000;stroke-width:0.05mm;fill:none" d="M280.247223,1091.747192L213,1024.494507L280.752747,956.747253L348.505463,889L607.005493,889L865.505493,889L933.252808,956.752747L1001.000061,1024.505493L933.747253,1091.752808L866.494507,1159L606.994446,1159L347.494446,1159L280.247223,1091.747192z"/>
    <path transform="matrix(0.01828,0,0,-0.01828,188.644684,-168.733597)" style="stroke:#000000;stroke-width:0.05mm;fill:none" d="M123.247223,937.747253L56,870.494507L56,611.494446L56,352.494446L123.5,285L191,217.505554L258.5,285L326,352.494446L326,612L326,871.505615L259.247223,938.252808C222.533188,974.963745,192.044449,1005,191.494446,1005C190.944443,1005,160.2332,974.736267,123.247223,937.747253z"/>
    <path transform="matrix(0.01828,0,0,-0.01828,188.644684,-168.733597)" style="stroke:#000000;stroke-width:0.05mm;fill:none" d="M955.247192,937.747253L888,870.494507L888,611.494446L888,352.494446L955.5,285L1023,217.505554L1090.5,285L1158,352.494446L1158,612L1158,871.505615L1091.247192,938.252808C1054.533203,974.963745,1024.044434,1005,1023.494446,1005C1022.944458,1005,992.233215,974.736267,955.247192,937.747253z"/>
    <path transform="matrix(0.01828,0,0,-0.01828,188.644684,-168.733597)" style="stroke:#000000;stroke-width:0.05mm;fill:none" d="M1304.928467,365.5354C1286.001953,362.440369,1272.575562,358.019257,1256.197754,349.489166C1217.200806,329.178192,1188.733643,292.642761,1178.537598,249.817825C1170.131836,214.512924,1174.143188,179.035919,1190.219604,146.5C1208.008667,110.497726,1240.568481,82.053719,1278.355713,69.504906C1318.41394,56.201908,1360.304199,59.551357,1397.928345,79.065651C1429.227051,95.299179,1453.841797,121.992813,1467.789429,154.82692C1485.416382,196.322495,1483.458374,244.677124,1462.52832,284.755005C1454.827637,299.500458,1447.110474,309.890533,1434.493286,322.5C1413.107056,343.873047,1387.479858,357.691254,1357.340454,364.100769C1344.504639,366.830475,1317.386963,367.572754,1304.928467,365.5354z"/>
    <path transform="matrix(0.01828,0,0,-0.01828,188.644684,-168.733597)" style="stroke:#000000;stroke-width:0.05mm;fill:none" d="M280.747223,264.247253L212.999985,196.494507L280.752716,128.747253L348.505463,61L607.005493,61L865.505493,61L933.252747,128.752747L1001,196.505493L933.247253,264.252747L865.494507,332L606.994507,332L348.494476,332L280.747223,264.247253z"/>
    <path transform="matrix(0.01828,0,0,-0.01828,188.644684,-168.733597)" style="stroke:#000000;stroke-width:0.05mm;fill:none" d="M583,1874.8927C560.174988,1834.658081,540.701721,1800.222534,539.726135,1798.369385L537.952209,1795L549.226135,1795.016235L560.5,1795.032471L572.522827,1816.766235L584.545654,1838.5L615.48645,1838.5L646.427185,1838.5L649.672791,1819C651.457886,1808.275024,653.170349,1798.487549,653.478271,1797.25C654.011841,1795.105591,654.503296,1795,663.956177,1795L673.874268,1795L673.318542,1798.25C673.012878,1800.037476,667.303711,1834.349976,660.631409,1874.5L648.5,1947.5L636.5,1947.773315L624.5,1948.046753L583,1874.8927z"/>
    <path transform="matrix(0.01828,0,0,-0.01828,188.644684,-168.733597)" style="stroke:#000000;stroke-width:0.05mm;fill:none" d="M640.382141,1877C642.234558,1865.175049,643.648376,1855.379517,643.523926,1855.232178C643.399536,1855.084961,632.236328,1855.084961,618.716797,1855.232178L594.135803,1855.5L608.817932,1882.02002C616.893066,1896.606079,625.747986,1913.301147,628.495544,1919.120239L633.491089,1929.700317L635.252625,1914.10022C636.221436,1905.52002,638.529724,1888.824951,640.382141,1877z"/>
    <path transform="matrix(0.01828,0,0,-0.01828,188.644684,-168.733597)" style="stroke:#000000;stroke-width:0.05mm;fill:none" d="M148.10347,1508.75C146.916977,1503.112549,139.749222,1468.800049,132.175095,1432.5L118.403961,1366.5L128.33223,1366.213623C133.79277,1366.05603,138.450348,1366.117065,138.682404,1366.349121C138.914459,1366.581177,142.314606,1382.122559,146.238266,1400.885498L153.372223,1435L193.515808,1435L233.659393,1435L235.329697,1442.772827C236.248367,1447.047974,237,1451.0979,237,1451.772827C237,1452.721924,227.922012,1453,196.932617,1453C159.243149,1453,156.895874,1453.103882,157.381607,1454.75C157.907684,1456.532959,167,1499.877441,167,1500.602417C167,1500.821167,184.738937,1501,206.419846,1501L245.839691,1501L247.419846,1507.947388C250.255173,1520.413452,256.366547,1519,199.630356,1519L150.260712,1519L148.10347,1508.75z"/>
    <path transform="matrix(0.01828,0,0,-0.01828,188.644684,-168.733597)" style="stroke:#000000;stroke-width:0.05mm;fill:none" d="M963.702515,1446.808594C955.0495,1405.388916,947.976563,1370.903198,947.984924,1370.173828C947.997253,1369.087402,955.637512,1368.91626,990.25,1369.227051C1030.447998,1369.588013,1032.819214,1369.712402,1039.072144,1371.788452C1066.21582,1380.800537,1082.15979,1411.125,1071.125977,1432.753052C1068.607178,1437.690308,1061.789551,1443.955688,1055.759521,1446.874512L1051.019043,1449.169189L1057.007813,1452.161743C1064.605835,1455.958618,1071.091064,1462.42749,1074.651978,1469.761963C1077.127075,1474.859985,1077.441284,1476.626221,1077.468872,1485.597412C1077.498413,1495.192505,1077.325806,1496.036621,1074,1502.559814C1069.78186,1510.833374,1063.606445,1515.981567,1054,1519.233032C1047.902588,1521.296875,1045.392456,1521.454346,1013.467651,1521.775146L979.435242,1522.117188L963.702515,1446.808594z"/>
    <path transform="matrix(0.01828,0,0,-0.01828,188.644684,-168.733597)" style="stroke:#000000;stroke-width:0.05mm;fill:none" d="M1039.946655,1503.971802C1048.822144,1502.820068,1053.875244,1499.890137,1056.490234,1494.379395C1063.052734,1480.549805,1055.730957,1464.917969,1040.346191,1459.912354C1034.287842,1457.941162,1030.824463,1457.633301,1010.25,1457.236938C990.494629,1456.856445,987,1457.005127,987,1458.226196C987,1459.807007,995.725647,1501.742188,996.472351,1503.75C997.046692,1505.294434,1028.518311,1505.454956,1039.946655,1503.971802z"/>
    <path transform="matrix(0.01828,0,0,-0.01828,188.644684,-168.733597)" style="stroke:#000000;stroke-width:0.05mm;fill:none" d="M1038.771118,1437.475342C1048.847534,1434.48291,1053.353638,1428.421753,1053.389282,1417.8125C1053.420532,1408.502319,1048.660034,1398.956909,1041.642822,1394.259277C1032.579102,1388.191772,1029.367065,1387.65979,999.25,1387.238281C984.262512,1387.028564,972,1387.111084,972,1387.421753C972,1388.270142,982.042969,1436.305298,982.5224,1437.75C983.1828,1439.740112,1031.946655,1439.501953,1038.771118,1437.475342z"/>
    <path transform="matrix(0.01828,0,0,-0.01828,188.644684,-168.733597)" style="stroke:#000000;stroke-width:0.05mm;fill:none" d="M614.5,1112.34021C585.932922,1106.231812,563.777466,1084.80603,553.655823,1053.5C547.477356,1034.390137,546.697083,1011.977173,551.671387,996.5C556.428711,981.697998,566.424622,969.344421,578.368225,963.506409C590.035217,957.803589,596.492004,956.521423,613,956.629272C625.139099,956.708618,629.060669,957.13739,637.085083,959.262573C648.186584,962.202759,660.316467,966.890259,667.587036,971.049927L672.674072,973.960266L677.430908,996.730164C680.04718,1009.25354,682.996643,1023.212524,683.985291,1027.75L685.782837,1036L652.051575,1036L618.320313,1036L617.028503,1028.75C616.318054,1024.762451,615.522827,1020.9375,615.261414,1020.25C614.889587,1019.272339,619.820557,1019,637.893005,1019C650.601868,1019,661.014709,1018.662476,661.032654,1018.25C661.050598,1017.837524,659.606873,1010.4198,657.824341,1001.766235L654.583313,986.03241L647.541687,982.583679C626.605469,972.329895,606.555786,970.478577,591.431458,977.40271C574.657288,985.082214,566.994446,1004.013489,569.93927,1030.5C571.406494,1043.696167,573.338135,1050.634033,578.570251,1061.5C584.302856,1073.405273,590.415649,1080.795654,599.625,1086.9552C610.203918,1094.030884,618.688416,1096.516235,632,1096.439209C640.352905,1096.390747,643.640869,1095.929077,648.079346,1094.181152C658.136597,1090.220581,665.781128,1081.644043,669.49646,1070.15271L671.225342,1064.805542L680.362671,1065.503296C685.388184,1065.887085,689.865784,1066.544067,690.312927,1066.963379C691.619141,1068.188477,688.133179,1079.921021,684.277954,1087.27478C677.793396,1099.643799,664.319885,1109.131348,648.471313,1112.488525C639.659058,1114.355225,623.595764,1114.285034,614.5,1112.34021z"/>
    <path transform="matrix(0.01828,0,0,-0.01828,188.644684,-168.733597)" style="stroke:#000000;stroke-width:0.05mm;fill:none" d="M149.15863,697.25C148.604721,694.637512,141.570465,661,133.526962,622.5C125.483444,584,118.669029,551.712524,118.383812,550.75C117.894081,549.097351,121.118095,549,176.324112,549L234.78299,549L236.391495,556.122681C237.276169,560.040161,238,564.090149,238,565.122681C238,566.932739,236.298782,567,190.5,567C145.904373,567,143.003891,567.106995,143.063538,568.75C143.09848,569.712524,145.460983,581.525024,148.313538,595L153.5,619.5L197.233582,619.760498L240.967163,620.020996L241.467255,622.260498C241.742294,623.492249,242.589447,627.3125,243.349792,630.75L244.732254,637L200.798737,637C159.428436,637,156.895172,637.102112,157.378479,638.75C157.660767,639.712524,159.715576,649.275024,161.944702,660C164.173843,670.724976,166.231781,680.512512,166.517899,681.75L167.038101,684L211.460037,684C244.050858,684,256.072693,684.308594,256.598053,685.15863C257.424011,686.495056,259.912689,697.650208,259.964874,700.25C259.997894,701.895874,256.731628,702,205.08287,702L150.165726,702L149.15863,697.25z"/>
    <path transform="matrix(0.01828,0,0,-0.01828,188.644684,-168.733597)" style="stroke:#000000;stroke-width:0.05mm;fill:none" d="M1020,706.504272C1016.424988,705.708252,1009.390076,703.025635,1004.36676,700.542908C984.079529,690.516113,967.684448,669.325989,961.005615,644.5C957.911987,633.00061,957.104431,608.565247,959.433472,596.928406C964.01709,574.026611,978.603149,557.992615,1000,552.334839C1008.007568,550.217468,1026.213135,549.960449,1034,551.854858C1049.2771,555.571411,1065.201416,566.417053,1074.486816,579.429382C1079.042725,585.813843,1087.654053,602.679321,1086.796021,603.537292C1086.531738,603.801514,1081.911377,604.627319,1076.528442,605.372314C1066.863159,606.710022,1066.734497,606.700623,1066.189819,604.617981C1064.509399,598.191895,1057.297485,586.295227,1051.80249,580.884949C1030.56604,559.975586,996.11499,563.888306,983.721069,588.617188C979.733398,596.573608,978.492981,603.423279,978.58136,617C978.775024,646.762085,991.321777,671.786987,1012.373535,684.399597C1023.795288,691.242615,1043.125122,692.974915,1054.219727,688.149719C1063.69751,684.027649,1071.063721,674.575195,1074.054688,662.697021C1075.222656,658.058594,1075.268677,658.018188,1078.866943,658.47699C1080.865112,658.73175,1085.087524,659.21106,1088.25,659.542053C1094.819092,660.229675,1094.852539,660.306519,1092.504761,669.320374C1088.150024,686.039185,1075.591797,699.455383,1059,705.113831C1050.618774,707.972168,1029.908447,708.710571,1020,706.504272z"/>
    <path transform="matrix(0.01828,0,0,-0.01828,188.644684,-168.733597)" style="stroke:#000000;stroke-width:0.05mm;fill:none" d="M1247.512329,257.75C1245.720581,250.08197,1223,140.069061,1223,139.061157C1223,138.097046,1229.6698,137.913864,1253.25,138.230362C1281.47998,138.609283,1283.967407,138.789612,1290.5,140.930862C1299.795654,143.977814,1303.558716,145.97525,1310.209351,151.392853C1320.996094,160.179672,1331.032593,176.710815,1334.624756,191.607574C1336.934937,201.188141,1336.915405,219.588638,1334.58667,227.457291C1329.490112,244.678284,1320.035645,254.411453,1304.465088,258.467102C1299.928955,259.648621,1292.786865,260,1273.30896,260L1248.038086,260L1247.512329,257.75z"/>
    <path transform="matrix(0.01828,0,0,-0.01828,188.644684,-168.733597)" style="stroke:#000000;stroke-width:0.05mm;fill:none" d="M1304.247314,243.162094C1310.209717,240.2258,1315.407104,234.22435,1317.716309,227.609299C1319.087646,223.681366,1319.477783,219.609772,1319.403809,210C1319.321899,199.365799,1318.915283,196.305878,1316.679321,189.5C1313.167725,178.811005,1307.723999,169.894394,1300.784546,163.464935C1291.357178,154.730392,1280.539307,152,1255.360229,152C1242.985718,152,1241.906372,152.145309,1242.360596,153.75C1242.633179,154.712494,1246.96106,175.300003,1251.978271,199.5C1256.995483,223.699997,1261.304932,244.104614,1261.55481,244.843597C1261.919067,245.921097,1265.721558,246.119141,1280.754517,245.843597C1297.996216,245.527557,1299.880859,245.312454,1304.247314,243.162094z"/>
    <path transform="matrix(0.01828,0,0,-0.01828,188.644684,-168.733597)" style="stroke:#000000;stroke-width:0.05mm;fill:none" d="M1370.669678,257.75C1369.211792,251.755219,1346,140.178345,1346,139.165146C1346,138.376205,1348.561279,138,1353.932617,138C1360.629395,138,1361.943481,138.272644,1362.367798,139.75C1362.644287,140.712494,1364.966309,151.625,1367.527832,164C1370.089478,176.375,1372.481079,186.797729,1372.842651,187.161621C1373.204224,187.525513,1384.300049,188.032944,1397.5,188.289246C1428.968384,188.900269,1436.043213,190.813934,1445.744995,201.339142C1453.42749,209.673752,1457.153809,219.512634,1457.116333,231.364502C1457.073975,244.778229,1448.563965,256.426575,1436.993774,258.907928C1433.946289,259.561493,1419.717896,260,1401.559204,260L1371.216797,260L1370.669678,257.75z"/>
    <path transform="matrix(0.01828,0,0,-0.01828,188.644684,-168.733597)" style="stroke:#000000;stroke-width:0.05mm;fill:none" d="M1433.086182,244.713333C1437.876465,242.328003,1441,236.635956,1441,230.291977C1441,219.433365,1435.16394,210.19194,1425.224243,205.310944C1419.564941,202.531906,1419.253174,202.496201,1397.75,202.165466C1379.318115,201.881973,1376,202.050919,1376,203.272842C1376,204.810349,1383.67627,242.247635,1384.623901,245.332062C1385.151611,247.049423,1386.573975,247.143295,1407.343384,246.831604C1426.161133,246.549194,1430.040405,246.229996,1433.086182,244.713333z"/>
    <path transform="matrix(0.01828,0,0,-0.01828,188.644684,-168.733597)" style="stroke:#000000;stroke-width:0.05mm;fill:none" d="M568.658813,278.776855C568.321777,277.433899,561.262573,243.747223,552.971741,203.917572C544.680847,164.087906,537.654419,130.678482,537.357361,129.674408C536.839783,127.925064,538.376709,127.865112,574.15863,128.23877C615.371704,128.669159,619.217651,129.16835,633.295898,135.914658C653.813599,145.746765,671.897278,170.797363,677.741577,197.48349C680.089233,208.203369,679.787231,229.453598,677.147339,239.300476C671.533752,260.2388,659.163818,273.152222,639.5,278.60199C634.685852,279.936188,627.152893,280.3591,601.385864,280.741699L569.271667,281.218536L568.658813,278.776855z"/>
    <path transform="matrix(0.01828,0,0,-0.01828,188.644684,-168.733597)" style="stroke:#000000;stroke-width:0.05mm;fill:none" d="M635.804626,260.788757C645.90625,257.051727,653.33606,248.748184,656.642944,237.5C658.795471,230.17836,659.043457,209.550751,657.08783,200.5C652.598145,179.721848,638.631836,158.816467,624.786194,152.149582C615.061218,147.466843,597.757568,145.048172,573.75,145.015823C563.479492,145.001999,562,145.208267,562,146.654053C562,147.946594,583.201538,250.793091,585.540039,260.844391L586.08551,263.188812L608.792725,262.785034C626.312073,262.473511,632.483459,262.017426,635.804626,260.788757z"/>
</svg>
