<?xml version="1.0" standalone="no"?>
<!DOCTYPE svg PUBLIC "-//W3C//DTD SVG 20010904//EN"
 "http://www.w3.org/TR/2001/REC-SVG-20010904/DTD/svg10.dtd">
<svg version="1.0" xmlns="http://www.w3.org/2000/svg"
 width="403.000000pt" height="141.000000pt" viewBox="0 0 403.000000 141.000000"
 preserveAspectRatio="xMidYMid meet">

<g transform="translate(0.000000,141.000000) scale(0.100000,-0.100000)"
fill="#000000" stroke="none">
<path d="M24 1385 l-24 -24 2 -678 3 -678 2010 0 2010 0 3 678 2 678 -24 24
-25 25 -1966 0 -1966 0 -25 -25z m3956 -25 c19 -19 20 -33 20 -480 l0 -460
-1389 0 -1388 0 -28 -41 c-74 -112 -192 -200 -325 -240 -94 -29 -235 -31 -325
-5 -135 40 -273 139 -339 243 l-26 43 -75 0 -75 0 0 460 c0 447 1 461 20 480
20 20 33 20 1965 20 1932 0 1945 0 1965 -20z m-977 -1068 c21 -19 23 -52 2
-52 -8 0 -24 9 -35 20 -22 22 -37 25 -59 11 -24 -15 -5 -38 42 -50 55 -13 77
-33 77 -70 0 -33 -15 -48 -59 -61 -56 -16 -121 16 -121 59 0 18 35 12 53 -9
26 -30 77 -24 77 10 0 14 -14 23 -53 34 -41 12 -57 22 -66 43 -30 67 80 118
142 65z m-939 5 c21 -15 25 -65 6 -77 -9 -6 -7 -13 9 -29 27 -27 27 -46 -4
-76 -21 -22 -33 -25 -95 -25 l-70 0 0 110 0 110 68 0 c41 0 75 -5 86 -13z
m121 -29 c11 -21 23 -38 27 -38 4 0 17 18 28 40 17 33 26 40 50 40 l29 0 -39
-62 c-32 -51 -40 -72 -40 -110 0 -44 -2 -48 -25 -48 -22 0 -25 4 -25 40 0 29
-11 58 -40 105 -22 36 -40 68 -40 71 0 3 12 4 28 2 19 -2 32 -13 47 -40z
m1027 -63 c21 -55 38 -103 38 -107 0 -5 -11 -8 -24 -8 -17 0 -26 7 -30 25 -9
37 -81 37 -98 0 -14 -30 -65 -38 -53 -8 3 10 23 60 42 111 33 86 38 93 62 90
22 -3 30 -15 63 -103z"/>
<path d="M2062 1290 c-220 -32 -371 -274 -307 -492 33 -116 147 -229 265 -264
173 -51 384 42 457 203 133 289 -99 599 -415 553z m163 -81 c83 -21 175 -112
205 -203 21 -66 16 -167 -13 -228 -69 -150 -248 -225 -400 -168 -119 45 -207
170 -207 295 0 106 75 235 165 283 71 37 156 45 250 21z"/>
<path d="M2102 1153 c-7 -3 -18 -16 -23 -30 -21 -55 46 -97 84 -55 40 44 -6
107 -61 85z"/>
<path d="M2031 1016 c-8 -9 -11 -42 -9 -93 3 -72 5 -78 26 -81 21 -3 22 -8 22
-93 l0 -89 60 0 60 0 0 90 c0 84 1 90 20 90 20 0 21 5 18 93 l-3 92 -91 3
c-70 2 -94 -1 -103 -12z"/>
<path d="M3011 1289 c-73 -12 -164 -63 -213 -118 -142 -161 -138 -386 9 -535
130 -132 335 -154 489 -52 121 81 182 207 172 356 -17 227 -226 387 -457 349z
m124 -70 c79 -15 122 -38 176 -96 118 -125 117 -316 0 -433 -130 -130 -315
-133 -447 -8 -125 119 -132 307 -16 439 39 44 119 88 180 99 26 4 47 8 48 9 0
0 27 -4 59 -10z"/>
<path d="M3005 1097 c-40 -18 -81 -68 -90 -107 -4 -18 -13 -30 -23 -30 -11 0
-6 -10 18 -35 19 -19 39 -35 45 -35 6 0 26 16 45 35 19 19 29 35 22 35 -20 0
-13 38 10 54 26 18 71 21 99 6 33 -18 52 -68 47 -127 -6 -74 -32 -107 -87
-111 -46 -3 -68 9 -82 45 -7 19 -16 23 -54 23 -51 0 -56 -10 -28 -67 25 -54
80 -85 151 -85 69 0 106 17 150 66 38 44 56 106 48 169 -7 60 -29 101 -78 140
-30 24 -48 30 -100 33 -41 3 -74 0 -93 -9z"/>
<path d="M610 1269 c-185 -25 -364 -191 -415 -384 -19 -76 -19 -194 0 -270 23
-88 62 -151 142 -231 107 -108 218 -154 371 -154 221 0 428 151 493 359 24 77
28 229 9 301 -31 116 -126 243 -231 311 -94 60 -236 86 -369 68z m211 -103
c197 -60 318 -234 307 -441 -4 -71 -10 -95 -41 -159 -83 -166 -261 -260 -447
-235 -89 13 -160 48 -231 115 -235 225 -151 602 160 716 58 21 190 23 252 4z"/>
<path d="M523 910 c-78 -18 -117 -72 -117 -161 1 -70 25 -113 79 -139 66 -32
134 -23 183 22 29 28 28 42 -4 57 -22 9 -29 8 -51 -9 -54 -42 -103 -16 -111
58 -5 58 9 89 46 103 21 8 31 6 55 -11 25 -19 32 -20 58 -10 33 14 33 14 19
41 -21 37 -99 62 -157 49z"/>
<path d="M825 910 c-75 -17 -115 -74 -115 -163 0 -146 169 -212 269 -104 l23
25 -32 17 c-31 16 -33 16 -54 -4 -50 -47 -116 -7 -116 71 0 50 14 76 48 89 21
8 31 6 55 -11 25 -19 32 -20 58 -10 35 15 37 30 7 57 -33 30 -95 45 -143 33z"/>
<path d="M1960 245 c0 -21 5 -25 28 -25 36 0 56 14 49 34 -4 10 -19 16 -42 16
-31 0 -35 -3 -35 -25z"/>
<path d="M1960 160 c0 -28 2 -30 40 -30 28 0 43 5 47 16 8 22 -22 44 -59 44
-24 0 -28 -4 -28 -30z"/>
<path d="M3137 228 c-4 -14 -10 -33 -13 -42 -5 -12 0 -16 20 -16 29 0 31 11
12 55 l-13 30 -6 -27z"/>
</g>
</svg>
