<?xml version="1.0" standalone="no"?>
<!DOCTYPE svg PUBLIC "-//W3C//DTD SVG 20010904//EN"
 "http://www.w3.org/TR/2001/REC-SVG-20010904/DTD/svg10.dtd">
<svg version="1.0" xmlns="http://www.w3.org/2000/svg"
 width="90.000000pt" height="176.000000pt" viewBox="0 0 90.000000 176.000000"
 preserveAspectRatio="xMidYMid meet">

<g transform="translate(0.000000,176.000000) scale(0.100000,-0.100000)"
fill="#000000" stroke="none">
<path d="M305 1729 c-202 -71 -328 -278 -295 -486 14 -83 56 -174 109 -231 37
-40 39 -45 29 -78 -5 -20 -6 -43 -1 -52 4 -10 10 -208 13 -442 l5 -425 25 0
25 0 3 407 c2 384 3 407 21 413 10 3 28 16 40 29 20 22 26 23 59 13 48 -13
176 -13 224 0 33 10 39 9 59 -13 12 -13 30 -26 40 -29 18 -6 19 -29 21 -413
l3 -407 25 0 25 0 5 425 c3 234 9 432 13 442 5 9 4 32 -1 52 -10 33 -8 38 29
78 108 117 143 307 83 458 -41 104 -126 193 -232 243 -59 28 -79 32 -167 34
-81 3 -111 0 -160 -18z m305 -75 c78 -37 146 -103 186 -182 27 -52 29 -66 29
-162 0 -96 -3 -110 -29 -165 -17 -33 -52 -82 -79 -108 l-50 -48 16 -47 c8 -26
13 -49 10 -52 -2 -2 -20 12 -39 33 -19 20 -36 37 -37 37 -1 0 -24 -7 -51 -15
-27 -8 -79 -15 -116 -15 -37 0 -89 7 -116 15 -27 8 -50 15 -51 15 -1 0 -18
-17 -37 -37 -29 -31 -36 -34 -36 -19 0 11 5 34 11 51 11 30 10 33 -38 81 -74
74 -106 148 -111 253 -5 102 16 173 73 250 72 100 184 152 315 148 71 -2 95
-7 150 -33z"/>
</g>
</svg>
