<?xml version="1.0" encoding="UTF-8"?>
<svg xmlns="http://www.w3.org/2000/svg" xmlns:xlink="http://www.w3.org/1999/xlink" width="50px" height="50px" viewBox="0 0 50 50" version="1.1">
<g id="surface1">
<path style=" stroke:none;fill-rule:nonzero;fill:rgb(0%,0%,0%);fill-opacity:1;" d="M 24.058594 0.0195312 C 21.941406 0.0976562 19.984375 0.417969 17.941406 1.015625 C 17.632812 1.101562 17.5625 1.128906 17.550781 1.15625 C 17.53125 1.195312 17.507812 1.117188 17.984375 2.664062 C 18.136719 3.152344 18.269531 3.582031 18.285156 3.621094 C 18.3125 3.703125 18.367188 3.726562 18.425781 3.6875 C 18.507812 3.632812 19.609375 3.339844 20.207031 3.207031 C 21.355469 2.957031 22.417969 2.8125 23.703125 2.726562 C 24.3125 2.6875 25.6875 2.6875 26.296875 2.726562 C 27.863281 2.832031 29.125 3.027344 30.535156 3.386719 C 32.089844 3.78125 33.464844 4.292969 34.90625 5.015625 C 35.753906 5.4375 36.402344 5.804688 37.144531 6.285156 C 39.386719 7.738281 41.417969 9.660156 43.011719 11.835938 C 44.46875 13.828125 45.628906 16.136719 46.332031 18.460938 C 46.382812 18.628906 46.425781 18.769531 46.421875 18.777344 C 46.414062 18.78125 46.355469 18.726562 46.289062 18.65625 L 46.160156 18.527344 L 46 18.519531 C 45.914062 18.511719 45.78125 18.507812 45.710938 18.503906 C 45.585938 18.503906 45.582031 18.503906 45.496094 18.570312 L 45.410156 18.636719 L 45.226562 18.644531 C 45.058594 18.652344 45.03125 18.65625 44.964844 18.699219 C 44.921875 18.722656 44.875 18.75 44.855469 18.757812 C 44.839844 18.761719 44.621094 18.769531 44.371094 18.773438 C 43.933594 18.773438 43.914062 18.777344 43.878906 18.8125 C 43.800781 18.878906 43.765625 18.886719 43.492188 18.894531 L 43.230469 18.90625 L 43.160156 18.964844 L 43.09375 19.027344 L 42.628906 19.027344 C 42.160156 19.027344 42.160156 19.027344 42.113281 19.066406 C 42.019531 19.148438 42 19.148438 41.667969 19.160156 C 41.371094 19.167969 41.34375 19.171875 41.289062 19.203125 C 41.140625 19.300781 41.160156 19.296875 40.773438 19.296875 L 40.410156 19.300781 L 40.320312 19.351562 C 40.273438 19.378906 40.210938 19.40625 40.183594 19.414062 C 40.15625 19.417969 39.921875 19.425781 39.660156 19.425781 C 39.132812 19.425781 39.171875 19.417969 39.015625 19.527344 C 38.972656 19.558594 38.941406 19.5625 38.582031 19.5625 C 38.371094 19.5625 38.183594 19.570312 38.164062 19.578125 C 38.144531 19.585938 38.105469 19.613281 38.078125 19.640625 L 38.023438 19.6875 L 36.707031 19.683594 L 35.390625 19.683594 L 35.308594 19.71875 C 35.265625 19.738281 35.214844 19.765625 35.203125 19.773438 C 35.152344 19.820312 35.011719 19.828125 34.574219 19.824219 L 34.132812 19.816406 L 34.015625 19.875 C 33.902344 19.9375 33.898438 19.9375 33.660156 19.945312 C 33.429688 19.949219 33.421875 19.949219 33.382812 19.910156 C 33.328125 19.863281 33.234375 19.75 33.234375 19.734375 C 33.234375 19.730469 33.210938 19.710938 33.179688 19.691406 C 33.136719 19.664062 33.105469 19.660156 32.945312 19.660156 L 32.761719 19.664062 L 32.660156 19.734375 C 32.5625 19.796875 32.546875 19.804688 32.449219 19.804688 C 32.355469 19.804688 32.328125 19.8125 32.257812 19.855469 C 32.214844 19.886719 32.15625 19.914062 32.128906 19.921875 C 32.105469 19.929688 32.042969 19.960938 31.996094 19.996094 C 31.941406 20.035156 31.890625 20.0625 31.863281 20.0625 C 31.835938 20.0625 31.777344 20.089844 31.722656 20.128906 C 31.671875 20.164062 31.609375 20.195312 31.589844 20.195312 C 31.566406 20.195312 31.53125 20.207031 31.507812 20.226562 C 31.484375 20.246094 31.457031 20.257812 31.449219 20.257812 C 31.4375 20.257812 31.382812 20.308594 31.324219 20.367188 C 31.253906 20.433594 31.203125 20.472656 31.179688 20.472656 C 31.15625 20.472656 31.121094 20.488281 31.097656 20.503906 C 31.074219 20.523438 31.046875 20.539062 31.039062 20.539062 C 31.03125 20.539062 30.914062 20.644531 30.78125 20.777344 C 30.648438 20.90625 30.523438 21.015625 30.507812 21.015625 C 30.414062 21.015625 30.285156 21.128906 29.417969 21.996094 C 28.535156 22.878906 28.445312 22.976562 28.445312 23.078125 C 28.445312 23.097656 28.222656 23.332031 27.847656 23.710938 C 27.324219 24.234375 27.242188 24.3125 27.203125 24.3125 C 27.136719 24.3125 27.070312 24.234375 27.058594 24.144531 C 27.050781 24.109375 27.039062 24.082031 27.035156 24.082031 C 27.027344 24.082031 27.007812 24.054688 26.992188 24.023438 C 26.953125 23.949219 26.875 23.902344 26.792969 23.902344 C 26.722656 23.902344 26.628906 23.949219 26.605469 24.003906 C 26.597656 24.023438 26.578125 24.058594 26.566406 24.082031 C 26.554688 24.105469 26.542969 24.140625 26.542969 24.164062 C 26.542969 24.199219 26.503906 24.242188 26.371094 24.367188 C 26.273438 24.457031 26.199219 24.539062 26.199219 24.550781 C 26.199219 24.589844 26.050781 24.734375 25.960938 24.785156 C 25.839844 24.855469 25.792969 24.851562 25.707031 24.761719 C 25.664062 24.71875 25.597656 24.660156 25.558594 24.632812 C 25.492188 24.582031 25.472656 24.578125 25.359375 24.574219 C 25.242188 24.574219 25.234375 24.574219 25.191406 24.519531 C 25.136719 24.457031 25.109375 24.359375 25.125 24.289062 C 25.132812 24.242188 25.183594 24.15625 25.214844 24.128906 C 25.21875 24.125 25.234375 24.101562 25.25 24.078125 C 25.273438 24.042969 25.277344 24.019531 25.261719 23.9375 C 25.242188 23.820312 25.253906 23.738281 25.304688 23.664062 C 25.398438 23.527344 25.410156 23.488281 25.40625 23.332031 L 25.402344 23.1875 L 25.480469 23.0625 C 25.523438 22.992188 25.558594 22.921875 25.558594 22.898438 C 25.558594 22.878906 25.570312 22.847656 25.589844 22.828125 C 25.605469 22.808594 25.636719 22.746094 25.664062 22.683594 C 25.6875 22.625 25.730469 22.535156 25.761719 22.488281 C 25.8125 22.410156 25.820312 22.386719 25.820312 22.292969 C 25.820312 22.171875 25.800781 22.203125 26.035156 21.972656 C 26.167969 21.84375 26.230469 21.753906 26.230469 21.691406 C 26.230469 21.648438 26.15625 21.507812 26.132812 21.507812 C 26.105469 21.507812 25.96875 21.371094 25.96875 21.34375 C 25.96875 21.328125 25.992188 21.289062 26.023438 21.261719 C 26.078125 21.210938 26.082031 21.195312 26.082031 21.113281 C 26.082031 21.054688 26.09375 21.003906 26.113281 20.964844 C 26.175781 20.851562 26.230469 20.730469 26.230469 20.703125 C 26.230469 20.6875 26.273438 20.632812 26.324219 20.578125 C 26.433594 20.46875 26.492188 20.375 26.492188 20.316406 C 26.492188 20.296875 26.503906 20.265625 26.515625 20.257812 C 26.53125 20.246094 26.59375 20.175781 26.65625 20.101562 C 26.757812 19.984375 26.773438 19.960938 26.773438 19.902344 C 26.773438 19.847656 26.78125 19.832031 26.855469 19.769531 C 26.949219 19.6875 27.050781 19.542969 27.050781 19.484375 C 27.050781 19.457031 27.09375 19.40625 27.214844 19.289062 C 27.386719 19.128906 27.445312 19.046875 27.457031 18.945312 C 27.460938 18.902344 27.492188 18.863281 27.59375 18.753906 C 27.710938 18.632812 27.722656 18.613281 27.722656 18.554688 C 27.722656 18.519531 27.734375 18.484375 27.746094 18.472656 C 27.761719 18.460938 27.789062 18.417969 27.8125 18.378906 C 27.851562 18.308594 27.855469 18.289062 27.851562 18.046875 C 27.851562 17.90625 27.851562 17.773438 27.851562 17.75 C 27.847656 17.726562 27.847656 17.640625 27.851562 17.554688 L 27.855469 17.398438 L 27.929688 17.332031 C 28.042969 17.230469 28.148438 17.078125 28.148438 17.019531 C 28.148438 16.972656 28.164062 16.949219 28.238281 16.886719 C 28.289062 16.84375 28.339844 16.78125 28.351562 16.746094 C 28.363281 16.714844 28.382812 16.679688 28.394531 16.675781 C 28.402344 16.671875 28.410156 16.644531 28.410156 16.621094 C 28.410156 16.59375 28.445312 16.546875 28.515625 16.472656 C 28.640625 16.339844 28.699219 16.253906 28.683594 16.207031 C 28.675781 16.183594 28.695312 16.148438 28.769531 16.074219 C 28.917969 15.917969 28.953125 15.871094 28.953125 15.828125 C 28.953125 15.808594 28.984375 15.746094 29.019531 15.683594 C 29.054688 15.621094 29.085938 15.550781 29.085938 15.527344 C 29.085938 15.503906 29.109375 15.460938 29.144531 15.417969 L 29.207031 15.351562 L 29.207031 15.136719 C 29.210938 14.886719 29.203125 14.867188 29.0625 14.746094 C 28.972656 14.664062 28.964844 14.625 29.035156 14.546875 C 29.0625 14.515625 29.085938 14.472656 29.085938 14.449219 C 29.085938 14.429688 29.113281 14.363281 29.148438 14.308594 C 29.1875 14.253906 29.214844 14.191406 29.214844 14.171875 C 29.214844 14.144531 29.3125 14.015625 29.378906 13.957031 C 29.414062 13.929688 29.496094 13.78125 29.496094 13.75 C 29.496094 13.738281 29.523438 13.675781 29.558594 13.605469 C 29.597656 13.539062 29.625 13.476562 29.625 13.46875 C 29.625 13.457031 29.667969 13.398438 29.722656 13.339844 C 29.847656 13.195312 29.867188 13.15625 29.878906 13.019531 C 29.890625 12.914062 29.894531 12.902344 29.996094 12.785156 C 30.066406 12.703125 30.128906 12.601562 30.199219 12.460938 C 30.253906 12.347656 30.296875 12.246094 30.296875 12.234375 C 30.296875 12.21875 30.3125 12.195312 30.332031 12.179688 C 30.347656 12.164062 30.363281 12.144531 30.363281 12.132812 C 30.363281 12.125 30.378906 12.101562 30.394531 12.074219 C 30.414062 12.050781 30.433594 12.007812 30.441406 11.980469 C 30.445312 11.957031 30.457031 11.925781 30.460938 11.917969 C 30.5 11.867188 30.5625 11.742188 30.5625 11.714844 C 30.5625 11.695312 30.589844 11.636719 30.628906 11.582031 C 30.664062 11.527344 30.699219 11.457031 30.703125 11.425781 C 30.707031 11.398438 30.722656 11.363281 30.734375 11.351562 C 30.757812 11.320312 30.839844 11.160156 30.839844 11.140625 C 30.839844 11.132812 30.863281 11.085938 30.894531 11.042969 C 30.9375 10.972656 30.953125 10.933594 30.960938 10.847656 C 30.964844 10.757812 30.980469 10.714844 31.035156 10.617188 C 31.074219 10.554688 31.101562 10.492188 31.101562 10.476562 C 31.101562 10.464844 31.117188 10.433594 31.140625 10.402344 C 31.160156 10.375 31.1875 10.320312 31.199219 10.28125 C 31.210938 10.242188 31.230469 10.195312 31.242188 10.171875 C 31.308594 10.054688 31.339844 9.96875 31.359375 9.859375 C 31.371094 9.78125 31.394531 9.714844 31.425781 9.675781 C 31.453125 9.632812 31.46875 9.585938 31.472656 9.542969 C 31.476562 9.414062 31.5 9.34375 31.5625 9.25 C 31.597656 9.199219 31.628906 9.136719 31.628906 9.113281 C 31.628906 9.09375 31.644531 9.054688 31.667969 9.027344 C 31.742188 8.9375 31.742188 8.925781 31.742188 8.503906 C 31.742188 8.070312 31.738281 8.054688 31.648438 7.972656 C 31.550781 7.878906 31.496094 7.859375 31.367188 7.867188 C 31.226562 7.871094 31.160156 7.898438 31.082031 7.984375 C 31.007812 8.070312 30.957031 8.105469 30.910156 8.105469 C 30.886719 8.105469 30.847656 8.113281 30.820312 8.128906 C 30.761719 8.160156 30.644531 8.265625 30.644531 8.289062 C 30.644531 8.296875 30.628906 8.324219 30.609375 8.351562 C 30.59375 8.375 30.574219 8.417969 30.566406 8.445312 C 30.554688 8.519531 30.429688 8.636719 30.355469 8.648438 C 30.269531 8.664062 30.152344 8.78125 30.152344 8.851562 C 30.152344 8.890625 30.128906 8.921875 30.058594 8.996094 C 30.003906 9.046875 29.878906 9.171875 29.773438 9.28125 C 29.671875 9.386719 29.558594 9.492188 29.527344 9.519531 C 29.484375 9.558594 29.167969 9.878906 29.054688 9.992188 C 29.046875 10 28.964844 10.078125 28.871094 10.167969 C 28.648438 10.378906 28.652344 10.375 28.425781 10.605469 C 28.273438 10.761719 28.21875 10.808594 28.175781 10.816406 C 28.113281 10.824219 27.992188 10.902344 27.914062 10.984375 C 27.8125 11.089844 27.785156 11.117188 27.457031 11.445312 C 27.269531 11.628906 27.109375 11.777344 27.089844 11.777344 C 27.023438 11.777344 26.828125 11.925781 26.640625 12.117188 C 26.628906 12.132812 26.515625 12.242188 26.394531 12.371094 C 26.207031 12.558594 26.160156 12.597656 26.121094 12.597656 C 26.039062 12.597656 26.023438 12.609375 25.589844 13.035156 C 25.519531 13.105469 25.46875 13.140625 25.441406 13.140625 C 25.371094 13.140625 25.269531 13.210938 25.164062 13.328125 C 25.109375 13.390625 25.019531 13.480469 24.96875 13.523438 C 24.917969 13.566406 24.828125 13.65625 24.769531 13.714844 C 24.710938 13.777344 24.652344 13.828125 24.636719 13.828125 C 24.597656 13.828125 24.445312 13.90625 24.425781 13.9375 C 24.386719 13.984375 24.234375 14.109375 24.207031 14.109375 C 24.144531 14.109375 24.015625 14.210938 23.753906 14.476562 C 23.597656 14.636719 23.429688 14.792969 23.386719 14.824219 C 23.308594 14.882812 23.308594 14.882812 23.257812 14.855469 C 23.21875 14.832031 23.203125 14.828125 23.152344 14.847656 C 23.070312 14.875 22.964844 15 22.898438 15.148438 C 22.882812 15.183594 22.839844 15.246094 22.796875 15.289062 C 22.714844 15.378906 22.636719 15.503906 22.636719 15.554688 C 22.636719 15.578125 22.609375 15.636719 22.570312 15.6875 C 22.535156 15.738281 22.507812 15.796875 22.507812 15.816406 C 22.507812 15.859375 22.394531 15.992188 22.359375 15.992188 C 22.34375 15.992188 22.289062 15.953125 22.242188 15.898438 C 22.125 15.769531 22.09375 15.761719 22.019531 15.835938 C 21.972656 15.886719 21.964844 15.902344 21.972656 15.941406 C 21.988281 16.011719 21.957031 16.125 21.90625 16.175781 C 21.886719 16.199219 21.863281 16.234375 21.859375 16.25 C 21.855469 16.269531 21.851562 16.285156 21.851562 16.289062 C 21.847656 16.292969 21.847656 16.351562 21.851562 16.421875 C 21.851562 16.488281 21.84375 16.628906 21.835938 16.738281 C 21.816406 16.921875 21.8125 16.9375 21.753906 17.039062 L 21.6875 17.148438 L 21.683594 18.140625 C 21.675781 19.816406 21.675781 19.796875 21.714844 19.882812 C 21.734375 19.921875 21.765625 19.980469 21.785156 20.011719 C 21.8125 20.066406 21.816406 20.101562 21.816406 20.441406 C 21.820312 20.832031 21.820312 20.832031 21.90625 20.957031 C 21.9375 21 21.941406 21.03125 21.941406 21.300781 L 21.941406 21.597656 L 21.992188 21.679688 C 22.066406 21.796875 22.078125 21.859375 22.082031 22.089844 C 22.082031 22.195312 22.089844 22.292969 22.09375 22.300781 C 22.101562 22.308594 22.105469 22.328125 22.105469 22.339844 C 22.109375 22.351562 22.132812 22.390625 22.15625 22.429688 C 22.199219 22.488281 22.203125 22.503906 22.207031 22.734375 L 22.214844 22.972656 L 22.269531 23.046875 C 22.332031 23.136719 22.339844 23.15625 22.34375 23.285156 C 22.347656 23.363281 22.359375 23.402344 22.402344 23.476562 C 22.445312 23.550781 22.460938 23.597656 22.476562 23.71875 C 22.484375 23.804688 22.488281 23.910156 22.484375 23.957031 C 22.472656 24.035156 22.476562 24.046875 22.542969 24.15625 L 22.613281 24.269531 L 22.613281 24.746094 L 22.667969 24.828125 C 22.699219 24.882812 22.71875 24.933594 22.71875 24.96875 C 22.71875 25.066406 22.601562 25.226562 22.457031 25.320312 C 22.367188 25.378906 22.117188 25.628906 22.09375 25.679688 C 22.085938 25.707031 22.074219 25.78125 22.070312 25.84375 C 22.066406 25.980469 22.082031 26.023438 22.203125 26.152344 C 22.253906 26.203125 22.292969 26.253906 22.292969 26.261719 C 22.292969 26.273438 22.222656 26.351562 22.140625 26.433594 C 22.003906 26.566406 21.96875 26.617188 21.902344 26.773438 C 21.890625 26.792969 21.859375 26.855469 21.835938 26.902344 C 21.804688 26.953125 21.785156 27.003906 21.785156 27.015625 C 21.785156 27.027344 21.757812 27.085938 21.722656 27.140625 C 21.6875 27.195312 21.652344 27.261719 21.648438 27.285156 C 21.640625 27.3125 21.617188 27.355469 21.597656 27.386719 C 21.546875 27.457031 21.535156 27.484375 21.53125 27.605469 C 21.527344 27.671875 21.515625 27.722656 21.496094 27.75 C 21.394531 27.890625 21.390625 27.898438 21.390625 28.105469 L 21.390625 28.300781 L 21.453125 28.359375 C 21.488281 28.394531 21.550781 28.453125 21.59375 28.488281 L 21.671875 28.554688 L 21.667969 29.15625 C 21.660156 29.683594 21.660156 29.757812 21.636719 29.785156 C 21.621094 29.800781 21.585938 29.871094 21.554688 29.9375 C 21.527344 30.003906 21.476562 30.101562 21.449219 30.152344 C 21.421875 30.199219 21.375 30.285156 21.351562 30.339844 C 21.324219 30.394531 21.28125 30.484375 21.253906 30.542969 C 21.230469 30.605469 21.179688 30.6875 21.152344 30.734375 C 21.121094 30.78125 21.097656 30.832031 21.097656 30.851562 C 21.097656 30.867188 21.011719 30.96875 20.902344 31.082031 C 20.714844 31.277344 20.707031 31.28125 20.617188 31.300781 C 20.542969 31.316406 20.5 31.316406 20.425781 31.300781 C 20.332031 31.28125 20.289062 31.25 20.144531 31.089844 C 20.0625 31.007812 19.847656 30.871094 19.792969 30.871094 C 19.78125 30.871094 19.742188 30.839844 19.703125 30.796875 C 19.613281 30.707031 19.46875 30.609375 19.421875 30.609375 C 19.402344 30.609375 19.347656 30.574219 19.304688 30.535156 C 19.183594 30.429688 19.058594 30.347656 19.007812 30.347656 C 18.984375 30.347656 18.953125 30.332031 18.9375 30.3125 C 18.894531 30.269531 18.804688 30.222656 18.730469 30.207031 C 18.695312 30.203125 18.636719 30.175781 18.597656 30.144531 C 18.539062 30.101562 18.507812 30.09375 18.402344 30.085938 C 18.289062 30.074219 18.273438 30.070312 18.207031 30.015625 L 18.136719 29.953125 L 17.027344 29.953125 L 16.964844 30.019531 C 16.902344 30.082031 16.898438 30.082031 16.753906 30.09375 C 16.675781 30.097656 16.457031 30.105469 16.273438 30.109375 L 15.9375 30.121094 L 15.871094 30.164062 C 15.796875 30.21875 15.664062 30.25 15.515625 30.25 C 15.417969 30.25 15.316406 30.285156 15.273438 30.339844 C 15.25 30.367188 15.109375 30.414062 15.039062 30.414062 C 14.980469 30.414062 14.886719 30.472656 14.789062 30.570312 C 14.726562 30.632812 14.6875 30.65625 14.640625 30.664062 C 14.605469 30.671875 14.5625 30.691406 14.542969 30.707031 C 14.496094 30.746094 14.464844 30.824219 14.476562 30.867188 C 14.488281 30.910156 14.570312 30.980469 14.636719 30.996094 C 14.722656 31.015625 14.695312 31.066406 14.488281 31.28125 C 14.3125 31.464844 14.292969 31.480469 14.238281 31.480469 C 14.15625 31.480469 14.058594 31.578125 14.058594 31.660156 C 14.058594 31.710938 14.046875 31.734375 13.988281 31.789062 C 13.953125 31.824219 13.914062 31.855469 13.910156 31.855469 C 13.902344 31.855469 13.878906 31.886719 13.855469 31.925781 C 13.824219 31.972656 13.8125 32.007812 13.8125 32.050781 C 13.820312 32.132812 13.796875 32.21875 13.757812 32.273438 C 13.679688 32.382812 13.664062 32.445312 13.664062 32.621094 C 13.664062 32.800781 13.6875 32.875 13.738281 32.898438 C 13.773438 32.910156 13.789062 32.898438 13.851562 32.828125 C 13.902344 32.769531 13.933594 32.765625 13.980469 32.800781 C 14.011719 32.820312 14.011719 32.824219 13.976562 32.902344 C 13.945312 32.972656 13.941406 33.015625 13.933594 33.300781 L 13.929688 33.617188 L 13.988281 33.703125 C 14.046875 33.796875 14.074219 33.875 14.074219 33.980469 C 14.074219 34.027344 14.089844 34.066406 14.132812 34.128906 C 14.164062 34.171875 14.191406 34.226562 14.191406 34.246094 C 14.191406 34.296875 14.320312 34.480469 14.386719 34.527344 C 14.453125 34.570312 14.53125 34.574219 14.617188 34.53125 C 14.652344 34.511719 14.691406 34.496094 14.710938 34.496094 C 14.734375 34.496094 14.984375 34.734375 15.175781 34.9375 C 15.277344 35.042969 15.378906 35.109375 15.46875 35.128906 C 15.496094 35.136719 15.527344 35.15625 15.539062 35.175781 C 15.570312 35.226562 15.679688 35.273438 15.738281 35.261719 C 15.804688 35.25 15.945312 35.292969 15.988281 35.335938 C 16.050781 35.40625 16.097656 35.417969 16.269531 35.40625 C 16.484375 35.390625 16.570312 35.40625 16.640625 35.46875 C 16.710938 35.527344 16.714844 35.578125 16.667969 35.644531 C 16.621094 35.707031 16.609375 35.777344 16.632812 35.847656 C 16.660156 35.929688 16.753906 35.960938 16.96875 35.964844 C 17.132812 35.964844 17.140625 35.964844 17.214844 35.910156 C 17.304688 35.851562 17.347656 35.847656 17.402344 35.886719 C 17.4375 35.910156 17.4375 35.921875 17.433594 35.980469 C 17.429688 36.015625 17.398438 36.078125 17.367188 36.121094 C 17.324219 36.183594 17.3125 36.214844 17.304688 36.316406 C 17.296875 36.414062 17.285156 36.445312 17.242188 36.507812 C 17.214844 36.546875 17.183594 36.597656 17.175781 36.617188 C 17.167969 36.640625 17.15625 37.261719 17.152344 38 L 17.140625 39.34375 L 17.183594 39.410156 C 17.289062 39.585938 17.28125 39.546875 17.28125 39.9375 L 17.285156 40.296875 L 17.335938 40.402344 C 17.363281 40.460938 17.390625 40.523438 17.394531 40.539062 C 17.414062 40.59375 17.40625 43.0625 17.390625 43.125 C 17.378906 43.15625 17.363281 43.191406 17.351562 43.203125 C 17.296875 43.273438 17.285156 43.351562 17.273438 43.71875 L 17.265625 44.085938 L 17.199219 44.199219 C 17.113281 44.347656 17.105469 44.382812 17.128906 44.511719 C 17.152344 44.660156 17.128906 44.785156 17.058594 44.890625 C 17.007812 44.96875 17.003906 44.980469 17 45.128906 C 17 45.292969 17.003906 45.285156 16.894531 45.484375 C 16.859375 45.542969 16.847656 45.59375 16.84375 45.667969 C 16.84375 45.722656 16.839844 45.769531 16.839844 45.769531 C 16.835938 45.769531 16.726562 45.722656 16.589844 45.667969 C 15.597656 45.265625 14.445312 44.6875 13.519531 44.128906 C 10.375 42.238281 7.707031 39.5625 5.832031 36.417969 C 5.425781 35.738281 4.90625 34.738281 4.601562 34.046875 C 3.699219 32 3.097656 29.8125 2.847656 27.632812 C 2.734375 26.667969 2.699219 26.027344 2.699219 25 C 2.699219 23.972656 2.734375 23.332031 2.847656 22.367188 C 3.023438 20.832031 3.390625 19.222656 3.910156 17.710938 C 4.046875 17.308594 4.046875 17.304688 4.007812 17.304688 C 3.96875 17.304688 3.550781 17.160156 3.140625 17 C 3.015625 16.949219 2.792969 16.867188 2.648438 16.820312 C 2.503906 16.769531 2.28125 16.683594 2.148438 16.628906 C 1.9375 16.542969 1.523438 16.398438 1.515625 16.410156 C 1.507812 16.414062 1.359375 16.847656 1.242188 17.199219 C -0.273438 21.792969 -0.40625 26.878906 0.871094 31.558594 C 1.890625 35.296875 3.742188 38.714844 6.320312 41.617188 C 8.71875 44.316406 11.71875 46.488281 15.027344 47.929688 C 15.320312 48.054688 15.984375 48.324219 16.132812 48.378906 C 16.167969 48.390625 16.210938 48.421875 16.226562 48.445312 C 16.292969 48.535156 16.351562 48.5625 16.480469 48.558594 C 16.589844 48.554688 16.625 48.566406 17.066406 48.710938 C 18.949219 49.339844 20.832031 49.730469 22.777344 49.898438 C 26.550781 50.230469 30.285156 49.722656 33.777344 48.410156 C 35.085938 47.921875 36.398438 47.296875 37.566406 46.617188 C 40.242188 45.050781 42.605469 43.011719 44.519531 40.613281 C 45.910156 38.875 47.058594 36.980469 47.929688 34.972656 C 49.597656 31.136719 50.265625 26.988281 49.898438 22.777344 C 49.546875 18.691406 48.160156 14.710938 45.90625 11.292969 C 43.742188 8.011719 40.933594 5.351562 37.550781 3.375 C 36.601562 2.820312 35.507812 2.285156 34.460938 1.855469 C 31.195312 0.515625 27.609375 -0.117188 24.058594 0.0195312 Z M 46.617188 19.480469 C 46.972656 20.875 47.167969 22.136719 47.273438 23.71875 C 47.3125 24.3125 47.3125 25.679688 47.273438 26.28125 C 47.1875 27.578125 47.039062 28.640625 46.792969 29.78125 C 46.125 32.851562 44.777344 35.800781 42.890625 38.328125 C 41.464844 40.234375 39.667969 41.972656 37.746094 43.308594 C 36.808594 43.960938 35.945312 44.46875 34.898438 44.988281 C 34.109375 45.382812 33.417969 45.679688 32.667969 45.953125 C 32.285156 46.097656 31.5625 46.332031 31.550781 46.320312 C 31.535156 46.304688 31.539062 44.832031 31.554688 44.765625 C 31.558594 44.734375 31.59375 44.671875 31.625 44.628906 L 31.683594 44.546875 L 31.683594 43.28125 L 31.75 43.152344 L 31.8125 43.019531 L 31.8125 42.386719 L 31.816406 41.757812 L 31.886719 41.648438 L 31.957031 41.535156 L 31.957031 41.332031 C 31.957031 41.214844 31.960938 41.109375 31.972656 41.09375 C 31.980469 41.074219 32.027344 41.039062 32.074219 41.011719 C 32.210938 40.933594 32.21875 40.914062 32.21875 40.503906 C 32.222656 40.3125 32.226562 40.132812 32.234375 40.101562 C 32.242188 40.074219 32.269531 40.035156 32.289062 40.011719 C 32.355469 39.941406 32.351562 39.902344 32.28125 39.820312 L 32.226562 39.757812 L 32.222656 39.421875 C 32.214844 39.066406 32.210938 39.035156 32.132812 38.980469 C 32.113281 38.964844 32.101562 38.9375 32.101562 38.902344 C 32.101562 38.855469 32.089844 38.828125 32.039062 38.777344 C 32 38.738281 31.972656 38.699219 31.972656 38.6875 C 31.972656 38.65625 32.039062 38.585938 32.089844 38.554688 C 32.15625 38.523438 32.21875 38.453125 32.21875 38.417969 C 32.21875 38.402344 32.195312 38.359375 32.167969 38.328125 C 32.109375 38.265625 32.085938 38.195312 32.085938 38.101562 C 32.085938 38.039062 32.042969 37.9375 31.988281 37.863281 C 31.9375 37.804688 31.945312 37.71875 32.003906 37.664062 L 32.050781 37.613281 L 32.746094 37.613281 C 33.128906 37.613281 33.519531 37.613281 33.613281 37.613281 C 33.765625 37.617188 33.796875 37.613281 33.859375 37.582031 C 33.898438 37.5625 33.945312 37.535156 33.960938 37.519531 C 33.984375 37.5 34.042969 37.492188 34.222656 37.488281 L 34.457031 37.480469 L 34.578125 37.417969 C 34.644531 37.382812 34.710938 37.351562 34.726562 37.351562 C 34.742188 37.351562 34.769531 37.339844 34.789062 37.328125 C 34.804688 37.316406 34.902344 37.261719 35 37.214844 C 35.097656 37.160156 35.191406 37.109375 35.203125 37.097656 C 35.246094 37.058594 35.40625 37.039062 35.546875 37.050781 C 35.695312 37.0625 35.761719 37.046875 35.851562 36.972656 C 35.886719 36.945312 35.933594 36.925781 35.953125 36.925781 C 36.035156 36.925781 36.171875 36.78125 36.171875 36.695312 C 36.171875 36.660156 36.199219 36.621094 36.269531 36.546875 C 36.335938 36.476562 36.394531 36.390625 36.453125 36.277344 C 36.59375 36 36.597656 35.992188 36.691406 35.941406 C 36.828125 35.871094 36.828125 35.878906 36.832031 35.355469 L 36.835938 34.898438 L 36.78125 34.808594 C 36.738281 34.738281 36.722656 34.695312 36.71875 34.613281 C 36.707031 34.484375 36.671875 34.40625 36.554688 34.277344 C 36.507812 34.222656 36.464844 34.167969 36.464844 34.152344 C 36.464844 34.136719 36.445312 34.082031 36.414062 34.027344 C 36.355469 33.917969 36.308594 33.859375 36.113281 33.675781 C 36.058594 33.625 35.945312 33.511719 35.859375 33.421875 C 35.773438 33.335938 35.675781 33.25 35.644531 33.234375 C 35.535156 33.175781 35.472656 33.085938 35.492188 33.023438 C 35.507812 32.96875 35.433594 32.847656 35.308594 32.726562 C 35.234375 32.65625 35.15625 32.589844 35.128906 32.574219 C 35.101562 32.558594 35.070312 32.539062 35.058594 32.523438 C 35.046875 32.511719 35.015625 32.492188 34.988281 32.488281 C 34.957031 32.480469 34.898438 32.453125 34.851562 32.425781 C 34.785156 32.382812 34.75 32.375 34.664062 32.371094 C 34.609375 32.371094 34.550781 32.359375 34.53125 32.347656 C 34.515625 32.335938 34.476562 32.304688 34.441406 32.277344 C 34.382812 32.230469 34.382812 32.230469 34.132812 32.226562 L 33.882812 32.222656 L 33.679688 32.097656 L 33.003906 32.101562 L 32.324219 32.101562 L 32.257812 32.152344 C 32.160156 32.21875 32.078125 32.238281 31.925781 32.226562 L 31.800781 32.214844 L 31.710938 32.285156 C 31.605469 32.367188 31.535156 32.386719 31.371094 32.371094 C 31.261719 32.363281 31.257812 32.363281 31.179688 32.421875 C 31.117188 32.46875 31.074219 32.488281 31 32.496094 C 30.847656 32.519531 30.695312 32.5 30.628906 32.453125 C 30.566406 32.40625 30.511719 32.324219 30.511719 32.273438 C 30.511719 32.253906 30.5625 32.195312 30.628906 32.128906 C 30.695312 32.0625 30.769531 31.988281 30.796875 31.957031 C 30.824219 31.929688 30.960938 31.792969 31.097656 31.65625 C 31.332031 31.421875 31.429688 31.292969 31.429688 31.21875 C 31.429688 31.203125 31.46875 31.15625 31.515625 31.109375 C 31.617188 31.011719 31.710938 30.875 31.710938 30.824219 C 31.710938 30.804688 31.734375 30.746094 31.765625 30.691406 C 31.820312 30.605469 31.824219 30.585938 31.824219 30.476562 C 31.824219 30.285156 31.886719 30.230469 31.988281 30.332031 C 32.015625 30.359375 32.050781 30.378906 32.066406 30.378906 C 32.101562 30.378906 32.296875 30.183594 32.347656 30.101562 C 32.367188 30.066406 32.382812 30.023438 32.382812 30.003906 C 32.382812 29.972656 32.300781 29.847656 32.261719 29.820312 C 32.234375 29.800781 32.21875 29.65625 32.230469 29.527344 C 32.238281 29.414062 32.234375 29.398438 32.195312 29.347656 C 32.171875 29.316406 32.140625 29.273438 32.125 29.25 C 32.101562 29.222656 32.097656 29.179688 32.09375 29.09375 C 32.09375 28.992188 32.089844 28.96875 32.050781 28.917969 C 31.992188 28.84375 31.859375 28.710938 31.785156 28.652344 C 31.753906 28.628906 31.726562 28.59375 31.726562 28.574219 C 31.726562 28.535156 31.785156 28.492188 31.847656 28.492188 C 31.945312 28.492188 32.101562 28.332031 32.101562 28.230469 C 32.101562 28.140625 31.953125 27.992188 31.84375 27.972656 C 31.8125 27.96875 31.753906 27.941406 31.714844 27.914062 L 31.644531 27.863281 L 30.707031 27.855469 L 30.628906 27.910156 C 30.554688 27.964844 30.402344 28.011719 30.359375 27.992188 C 30.316406 27.976562 30.179688 28.0625 30.085938 28.15625 C 30.019531 28.222656 29.984375 28.246094 29.949219 28.246094 C 29.90625 28.246094 29.816406 28.304688 29.722656 28.394531 C 29.699219 28.417969 29.660156 28.453125 29.640625 28.472656 C 29.621094 28.492188 29.566406 28.542969 29.523438 28.589844 C 29.460938 28.660156 29.4375 28.675781 29.390625 28.675781 C 29.347656 28.675781 29.316406 28.691406 29.261719 28.738281 C 29.199219 28.792969 29.171875 28.804688 29.089844 28.816406 C 28.925781 28.832031 28.902344 28.828125 28.851562 28.769531 C 28.824219 28.738281 28.792969 28.691406 28.78125 28.667969 C 28.765625 28.636719 28.710938 28.574219 28.65625 28.515625 C 28.550781 28.410156 28.523438 28.339844 28.539062 28.238281 C 28.546875 28.199219 28.539062 28.171875 28.523438 28.152344 C 28.46875 28.089844 28.410156 27.972656 28.410156 27.917969 C 28.410156 27.808594 28.492188 27.789062 28.585938 27.878906 C 28.679688 27.957031 28.710938 27.960938 28.796875 27.910156 C 28.886719 27.859375 28.953125 27.765625 28.953125 27.699219 C 28.953125 27.640625 28.902344 27.527344 28.863281 27.492188 C 28.851562 27.480469 28.839844 27.457031 28.839844 27.4375 C 28.839844 27.417969 28.804688 27.355469 28.765625 27.296875 C 28.71875 27.234375 28.691406 27.171875 28.691406 27.148438 C 28.691406 27.121094 28.671875 27.082031 28.652344 27.054688 C 28.519531 26.894531 28.5625 26.792969 28.746094 26.835938 C 28.789062 26.84375 28.839844 26.855469 28.859375 26.855469 C 28.875 26.855469 28.933594 26.882812 28.980469 26.917969 C 29.035156 26.957031 29.09375 26.984375 29.117188 26.984375 C 29.144531 26.984375 29.183594 27 29.210938 27.023438 C 29.300781 27.09375 29.339844 27.109375 29.449219 27.121094 C 29.519531 27.125 29.578125 27.140625 29.601562 27.160156 C 29.695312 27.226562 29.765625 27.265625 29.800781 27.265625 C 29.820312 27.265625 29.867188 27.289062 29.90625 27.320312 C 29.945312 27.351562 29.988281 27.378906 30.003906 27.378906 C 30.070312 27.378906 30.199219 27.222656 30.199219 27.140625 C 30.199219 27.09375 30.132812 26.96875 30.09375 26.9375 C 30.082031 26.925781 30.070312 26.902344 30.070312 26.886719 C 30.070312 26.835938 29.964844 26.691406 29.847656 26.570312 C 29.785156 26.507812 29.722656 26.449219 29.707031 26.433594 C 29.695312 26.421875 29.621094 26.347656 29.539062 26.273438 C 29.386719 26.128906 29.371094 26.089844 29.429688 26.035156 C 29.457031 26.007812 29.476562 26.003906 29.535156 26.011719 C 29.59375 26.019531 29.617188 26.015625 29.65625 25.984375 C 29.71875 25.941406 29.742188 25.941406 29.839844 25.992188 C 29.949219 26.046875 29.988281 26.046875 30.082031 25.972656 C 30.121094 25.941406 30.1875 25.90625 30.226562 25.902344 C 30.261719 25.890625 30.71875 25.886719 31.238281 25.886719 C 31.96875 25.886719 32.195312 25.882812 32.214844 25.867188 C 32.230469 25.855469 32.265625 25.824219 32.296875 25.796875 L 32.351562 25.746094 L 33.15625 25.742188 C 34.023438 25.734375 34.007812 25.738281 34.101562 25.648438 C 34.136719 25.621094 34.160156 25.613281 34.316406 25.613281 L 34.492188 25.613281 L 34.59375 25.542969 C 34.648438 25.503906 34.710938 25.453125 34.726562 25.429688 C 34.746094 25.40625 34.765625 25.378906 34.773438 25.367188 C 34.84375 25.285156 34.847656 25.265625 34.820312 25.160156 C 34.804688 25.101562 34.796875 25.039062 34.804688 25.019531 C 34.808594 25 34.851562 24.964844 34.898438 24.933594 C 34.945312 24.90625 35.011719 24.863281 35.042969 24.832031 L 35.109375 24.777344 L 35.554688 24.777344 C 36.035156 24.777344 36.027344 24.78125 36.160156 24.683594 C 36.203125 24.648438 36.230469 24.648438 36.636719 24.640625 C 37.097656 24.640625 37.128906 24.632812 37.261719 24.542969 C 37.316406 24.503906 37.339844 24.5 37.488281 24.496094 C 37.695312 24.496094 37.667969 24.5 37.734375 24.441406 C 37.796875 24.386719 37.910156 24.363281 38.089844 24.359375 C 38.164062 24.359375 38.195312 24.347656 38.292969 24.292969 C 38.390625 24.234375 38.421875 24.226562 38.507812 24.222656 C 38.597656 24.21875 38.628906 24.210938 38.710938 24.160156 C 38.789062 24.109375 38.832031 24.097656 38.914062 24.089844 C 38.992188 24.078125 39.035156 24.066406 39.105469 24.023438 C 39.171875 23.976562 39.210938 23.964844 39.292969 23.957031 C 39.347656 23.953125 39.414062 23.945312 39.433594 23.941406 C 39.488281 23.929688 39.929688 23.496094 39.964844 23.417969 C 39.984375 23.378906 39.992188 23.316406 39.992188 23.242188 C 39.992188 23.148438 39.988281 23.117188 39.949219 23.0625 C 39.890625 22.976562 39.910156 22.929688 40.03125 22.875 C 40.078125 22.851562 40.164062 22.808594 40.21875 22.777344 C 40.296875 22.734375 40.347656 22.714844 40.429688 22.707031 C 40.515625 22.699219 40.554688 22.6875 40.621094 22.644531 C 40.6875 22.59375 40.722656 22.582031 40.820312 22.574219 C 40.914062 22.566406 40.953125 22.550781 41.015625 22.511719 C 41.074219 22.46875 41.113281 22.457031 41.207031 22.449219 C 41.308594 22.4375 41.339844 22.425781 41.421875 22.371094 C 41.472656 22.335938 41.527344 22.308594 41.546875 22.308594 C 41.5625 22.308594 41.617188 22.28125 41.671875 22.242188 C 41.761719 22.183594 41.78125 22.175781 41.894531 22.167969 C 42.003906 22.160156 42.027344 22.152344 42.109375 22.09375 C 42.160156 22.058594 42.207031 22.03125 42.214844 22.03125 C 42.234375 22.03125 42.4375 21.929688 42.449219 21.914062 C 42.453125 21.90625 42.46875 21.898438 42.484375 21.898438 C 42.5 21.898438 42.5625 21.867188 42.625 21.824219 C 42.691406 21.785156 42.753906 21.753906 42.769531 21.753906 C 42.785156 21.753906 42.835938 21.734375 42.878906 21.710938 C 42.996094 21.644531 43.046875 21.617188 43.136719 21.574219 C 43.179688 21.550781 43.257812 21.492188 43.3125 21.441406 C 43.410156 21.347656 43.445312 21.332031 43.570312 21.328125 C 43.664062 21.324219 43.722656 21.289062 43.863281 21.164062 C 43.933594 21.101562 43.992188 21.0625 44.015625 21.0625 C 44.0625 21.0625 44.269531 20.910156 44.292969 20.859375 C 44.3125 20.816406 44.371094 20.785156 44.425781 20.785156 C 44.476562 20.785156 44.574219 20.714844 44.691406 20.601562 C 44.753906 20.535156 44.800781 20.503906 44.824219 20.503906 C 44.878906 20.503906 44.976562 20.441406 45.09375 20.332031 C 45.15625 20.269531 45.21875 20.230469 45.273438 20.210938 C 45.335938 20.1875 45.390625 20.152344 45.480469 20.0625 C 45.585938 19.960938 45.609375 19.949219 45.660156 19.949219 C 45.714844 19.949219 45.738281 19.929688 45.925781 19.746094 C 46.101562 19.570312 46.136719 19.542969 46.199219 19.535156 C 46.28125 19.519531 46.351562 19.445312 46.367188 19.359375 C 46.375 19.324219 46.40625 19.265625 46.445312 19.222656 C 46.476562 19.175781 46.507812 19.125 46.507812 19.105469 C 46.507812 19.089844 46.507812 19.078125 46.511719 19.078125 C 46.515625 19.082031 46.5625 19.261719 46.617188 19.480469 Z M 19.757812 44.605469 C 19.804688 44.671875 19.84375 44.738281 19.847656 44.753906 C 19.859375 44.804688 19.859375 45.546875 19.847656 45.589844 C 19.835938 45.632812 19.84375 45.648438 19.90625 45.722656 C 19.941406 45.769531 19.980469 45.832031 19.988281 45.859375 C 20 45.886719 20.003906 46.066406 20 46.320312 C 19.992188 46.730469 19.992188 46.734375 19.957031 46.734375 C 19.9375 46.734375 19.746094 46.6875 19.527344 46.632812 L 19.136719 46.53125 L 19.136719 46.390625 C 19.136719 46.261719 19.140625 46.242188 19.199219 46.144531 C 19.253906 46.042969 19.257812 46.027344 19.257812 45.886719 C 19.257812 45.714844 19.273438 45.664062 19.34375 45.589844 L 19.398438 45.535156 L 19.398438 45.148438 L 19.46875 45.050781 L 19.539062 44.949219 L 19.535156 44.773438 C 19.53125 44.632812 19.535156 44.585938 19.558594 44.542969 C 19.613281 44.4375 19.65625 44.449219 19.757812 44.605469 Z M 28.675781 44.785156 C 28.707031 44.816406 28.722656 44.855469 28.722656 44.886719 C 28.722656 44.917969 28.75 44.976562 28.800781 45.050781 C 28.871094 45.152344 28.875 45.167969 28.878906 45.273438 C 28.882812 45.378906 28.886719 45.394531 28.941406 45.460938 C 28.992188 45.53125 29 45.554688 29.007812 45.667969 C 29.015625 45.738281 29.015625 45.816406 29.007812 45.839844 C 29 45.871094 29.015625 45.90625 29.070312 45.992188 C 29.140625 46.105469 29.140625 46.105469 29.144531 46.28125 C 29.148438 46.464844 29.15625 46.484375 29.242188 46.59375 C 29.277344 46.632812 29.28125 46.660156 29.28125 46.769531 C 29.28125 46.839844 29.277344 46.898438 29.273438 46.898438 C 29.269531 46.898438 29.128906 46.925781 28.957031 46.957031 C 28.230469 47.089844 27.21875 47.214844 26.480469 47.257812 L 26.28125 47.269531 L 26.363281 47.179688 C 26.410156 47.128906 26.476562 47.0625 26.511719 47.03125 C 26.570312 46.972656 26.65625 46.832031 26.65625 46.785156 C 26.65625 46.746094 26.757812 46.652344 26.800781 46.652344 C 26.820312 46.652344 26.863281 46.636719 26.894531 46.613281 C 26.964844 46.566406 27.066406 46.429688 27.066406 46.382812 C 27.066406 46.355469 27.230469 46.183594 27.582031 45.828125 C 27.867188 45.546875 28.101562 45.308594 28.101562 45.300781 C 28.101562 45.296875 28.113281 45.269531 28.132812 45.246094 C 28.152344 45.226562 28.164062 45.183594 28.164062 45.15625 C 28.164062 45.121094 28.195312 45.078125 28.289062 44.976562 C 28.496094 44.753906 28.519531 44.734375 28.578125 44.734375 C 28.613281 44.734375 28.644531 44.75 28.675781 44.785156 Z M 28.675781 44.785156 "/>
<path style=" stroke:none;fill-rule:nonzero;fill:rgb(0%,0%,0%);fill-opacity:1;" d="M 3.058594 0.0273438 C 1.730469 0.109375 0.957031 0.421875 0.554688 1.03125 C 0.324219 1.375 0.152344 1.917969 0.0742188 2.539062 C 0.015625 3.011719 0.015625 3.253906 0.0195312 7.792969 C 0.0234375 11.914062 0.0273438 12.28125 0.0546875 12.496094 C 0.246094 14.0625 0.707031 14.699219 1.878906 14.992188 C 2.535156 15.15625 2.828125 15.175781 4.949219 15.175781 L 6.59375 15.175781 L 6.59375 21.046875 L 9.136719 21.046875 L 9.136719 15.175781 L 10.855469 15.164062 C 11.800781 15.160156 14.097656 15.152344 15.960938 15.144531 C 19.671875 15.128906 19.488281 15.132812 19.996094 15.03125 C 21.238281 14.78125 21.84375 14.089844 22 12.753906 C 22.03125 12.492188 22.03125 8.574219 22 8.292969 C 21.972656 8.023438 21.910156 7.734375 21.84375 7.523438 C 21.53125 6.570312 20.871094 6.105469 19.585938 5.925781 C 19.394531 5.902344 18.914062 5.898438 12.988281 5.894531 L 6.59375 5.890625 L 6.59375 13.058594 L 2.542969 13.058594 L 2.542969 2.082031 L 13.042969 2.082031 L 13.042969 5.511719 L 13.078125 5.503906 C 13.097656 5.5 13.65625 5.394531 14.3125 5.273438 C 14.972656 5.152344 15.527344 5.046875 15.546875 5.039062 L 15.585938 5.03125 L 15.585938 4.117188 C 15.585938 3.617188 15.574219 3.101562 15.566406 2.96875 C 15.492188 1.894531 15.269531 1.203125 14.863281 0.78125 C 14.480469 0.382812 13.933594 0.175781 12.960938 0.0546875 C 12.757812 0.03125 12.316406 0.0273438 7.941406 0.0234375 C 5.300781 0.0234375 3.105469 0.0234375 3.058594 0.0273438 Z M 18.152344 7.875 C 18.925781 7.941406 19.265625 8.207031 19.394531 8.847656 C 19.449219 9.101562 19.457031 9.386719 19.449219 10.664062 C 19.441406 11.976562 19.441406 11.992188 19.363281 12.285156 C 19.285156 12.597656 19.101562 12.835938 18.847656 12.957031 C 18.695312 13.03125 18.601562 13.058594 18.390625 13.101562 C 18.269531 13.125 18.074219 13.128906 16.851562 13.136719 L 15.449219 13.140625 L 15.460938 13.09375 C 15.558594 12.597656 15.574219 12.386719 15.578125 11.035156 C 15.585938 9.847656 15.585938 9.796875 15.554688 9.785156 C 15.507812 9.773438 13.085938 9.269531 13.0625 9.269531 C 13.042969 9.269531 13.042969 9.582031 13.042969 11.164062 L 13.042969 13.058594 L 9.136719 13.058594 L 9.136719 7.859375 L 13.546875 7.859375 C 16.472656 7.859375 18.019531 7.863281 18.152344 7.875 Z M 18.152344 7.875 "/>
</g>
</svg>
