<?xml version="1.0" standalone="no"?>
<!DOCTYPE svg PUBLIC "-//W3C//DTD SVG 1.0//EN" "http://www.w3.org/TR/2001/REC-SVG-20010904/DTD/svg10.dtd">
<svg xmlns="http://www.w3.org/2000/svg" xmlns:xlink="http://www.w3.org/1999/xlink" id="body_1" width="88" height="47">

<g transform="matrix(0.06646526 0 0 0.06646526 -0 0.40785426)">
	<g transform="matrix(0.1 0 -0 -0.1 0 701)">
        <path d="M797 6999C 527 6976 320 6902 213 6789C 110 6679 45 6490 21 6230C 7 6077 6 3648 20 3495C 45 3222 114 3028 225 2921C 316 2831 469 2767 670 2734C 757 2720 868 2716 1328 2713L1328 2713L1880 2708L1880 1869L1880 1030L2245 1030L2610 1030L2610 1870L2610 2710L4056 2710C 5316 2710 5516 2712 5608 2726C 5898 2769 6073 2876 6168 3070C 6262 3260 6274 3386 6268 4119C 6264 4573 6260 4668 6246 4738C 6199 4969 6102 5121 5945 5211C 5874 5253 5732 5296 5608 5314C 5515 5328 5287 5330 3691 5330L3691 5330L1880 5330L1880 4320L1880 3310L1300 3310L720 3310L720 4865L720 6420L2215 6420L3710 6420L3710 5934C 3710 5549 3713 5449 3723 5453C 3729 5455 3889 5486 4078 5521L4078 5521L4420 5584L4420 5894C 4420 6211 4409 6345 4375 6481C 4297 6794 4145 6920 3767 6987C 3685 7001 3517 7003 2285 7005C 1520 7007 851 7004 797 6999zM5199 4760C 5392 4735 5475 4667 5515 4499C 5537 4405 5537 3645 5515 3551C 5475 3383 5392 3315 5199 3290C 5104 3279 4390 3276 4390 3288C 4390 3292 4397 3345 4405 3405C 4416 3484 4420 3616 4420 3877L4420 3877L4420 4239L4368 4250C 4339 4256 4180 4289 4015 4324L4015 4324L3715 4386L3712 3848L3710 3310L3160 3310L2610 3310L2610 4040L2610 4770L3863 4770C 4674 4770 5145 4766 5199 4760z" stroke="none" fill="#000000" fill-rule="nonzero" />
        <path d="M2910 2587C 2844 2564 2839 2538 2842 2272L2842 2272L2845 2038L2872 2015C 2911 1982 2951 1978 3250 1982C 3481 1985 3519 1987 3542 2002C 3583 2029 3593 2099 3588 2324C 3584 2525 3575 2566 3533 2586C 3502 2600 2950 2601 2910 2587zM3470 2290L3470 2070L3210 2070L2950 2070L2950 2290L2950 2510L3210 2510L3470 2510L3470 2290z" stroke="none" fill="#000000" fill-rule="nonzero" />
        <path d="M3771 2583C 3779 2574 3851 2494 3933 2406L3933 2406L4080 2246L4080 2113L4080 1980L4135 1980L4190 1980L4190 2118L4190 2255L4345 2423C 4430 2516 4500 2593 4500 2596C 4500 2598 4472 2600 4438 2600L4438 2600L4375 2600L4256 2464C 4191 2389 4135 2332 4131 2337C 4126 2341 4070 2402 4006 2473L4006 2473L3888 2600L3823 2600C 3763 2600 3759 2599 3771 2583z" stroke="none" fill="#000000" fill-rule="nonzero" />
        <path d="M4740 2587C 4674 2564 4669 2538 4672 2272L4672 2272L4675 2038L4702 2015C 4741 1982 4781 1978 5080 1982C 5311 1985 5349 1987 5372 2002C 5413 2029 5423 2099 5418 2324C 5414 2525 5405 2566 5363 2586C 5332 2600 4780 2601 4740 2587zM5300 2290L5300 2070L5040 2070L4780 2070L4780 2290L4780 2510L5040 2510L5300 2510L5300 2290z" stroke="none" fill="#000000" fill-rule="nonzero" />
        <path d="M5580 2555L5580 2510L5730 2510L5880 2510L5880 2245L5880 1980L5935 1980L5990 1980L5990 2245L5990 2510L6135 2510L6280 2510L6280 2555L6280 2600L5930 2600L5580 2600L5580 2555z" stroke="none" fill="#000000" fill-rule="nonzero" />
        <path d="M6460 2290L6460 1980L6770 1980L7080 1980L7080 2025L7080 2070L6825 2070L6570 2070L6570 2165L6570 2260L6720 2260L6870 2260L6870 2305L6870 2350L6720 2350L6570 2350L6570 2430L6570 2510L6820 2510L7070 2510L7070 2555L7070 2600L6765 2600L6460 2600L6460 2290z" stroke="none" fill="#000000" fill-rule="nonzero" />
        <path d="M2820 1425L2820 1050L2885 1050L2950 1050L2950 1195L2950 1340L3061 1340L3172 1340L3323 1195L3475 1050L3568 1050C 3618 1050 3660 1052 3660 1054C 3660 1056 3586 1120 3495 1197L3495 1197L3329 1335L3422 1340C 3577 1349 3590 1367 3590 1571C 3590 1809 3607 1800 3156 1800L3156 1800L2820 1800L2820 1425zM3438 1684C 3458 1670 3460 1661 3460 1570C 3460 1433 3475 1440 3183 1440L3183 1440L2950 1440L2950 1570L2950 1700L3183 1700C 3377 1700 3419 1697 3438 1684z" stroke="none" fill="#000000" fill-rule="nonzero" />
        <path d="M3993 1785C 3929 1757 3925 1737 3925 1425C 3925 1110 3929 1092 3995 1064C 4045 1043 4675 1043 4725 1064C 4794 1093 4795 1100 4795 1425C 4795 1750 4794 1757 4725 1786C 4676 1806 4040 1806 3993 1785zM4670 1425L4670 1150L4360 1150L4050 1150L4050 1425L4050 1700L4360 1700L4670 1700L4670 1425z" stroke="none" fill="#000000" fill-rule="nonzero" />
        <path d="M5170 1425L5170 1048L5468 1052C 5752 1056 5768 1057 5824 1079C 5934 1123 6006 1222 6030 1363C 6060 1536 5971 1713 5822 1772C 5768 1793 5749 1794 5468 1798L5468 1798L5170 1802L5170 1425zM5742 1678C 5812 1655 5850 1623 5877 1563C 5900 1514 5902 1498 5898 1412C 5893 1302 5872 1247 5820 1210C 5760 1167 5706 1158 5498 1153L5498 1153L5300 1148L5300 1425L5300 1702L5498 1697C 5635 1694 5709 1688 5742 1678z" stroke="none" fill="#000000" fill-rule="nonzero" />
        <path d="M6352 1473C 6355 1179 6357 1142 6373 1112C 6405 1053 6426 1050 6752 1051C 7088 1051 7105 1054 7135 1115C 7154 1152 7155 1179 7158 1478L7158 1478L7161 1800L7096 1800L7030 1800L7030 1475L7030 1150L6755 1150L6480 1150L6480 1475L6480 1800L6414 1800L6349 1800L6352 1473z" stroke="none" fill="#000000" fill-rule="nonzero" />
        <path d="M7610 1787C 7589 1779 7568 1762 7555 1740C 7536 1707 7535 1689 7535 1425C 7535 1173 7537 1142 7553 1112C 7585 1054 7607 1050 7922 1050C 8171 1050 8209 1052 8240 1068C 8291 1093 8310 1138 8310 1236L8310 1236L8310 1317L8278 1323C 8260 1326 8230 1332 8213 1336L8213 1336L8180 1343L8180 1246L8180 1150L7920 1150L7660 1150L7660 1425L7660 1700L7920 1700L8180 1700L8180 1615C 8180 1568 8184 1530 8188 1530C 8193 1530 8223 1535 8255 1542L8255 1542L8312 1553L8308 1636C 8303 1730 8286 1764 8235 1786C 8190 1804 7664 1805 7610 1787z" stroke="none" fill="#000000" fill-rule="nonzero" />
        <path d="M8460 1750L8460 1700L8630 1700L8800 1700L8800 1375L8800 1050L8865 1050L8930 1050L8930 1375L8930 1700L9100 1700L9270 1700L9270 1750L9270 1800L8865 1800L8460 1800L8460 1750z" stroke="none" fill="#000000" fill-rule="nonzero" />
        <path d="M9480 1425L9480 1050L9545 1050L9610 1050L9610 1425L9610 1800L9545 1800L9480 1800L9480 1425z" stroke="none" fill="#000000" fill-rule="nonzero" />
        <path d="M10063 1785C 9999 1757 9995 1737 9995 1425C 9995 1110 9999 1092 10065 1064C 10115 1043 10745 1043 10795 1064C 10864 1093 10865 1100 10865 1425C 10865 1750 10864 1757 10795 1786C 10746 1806 10110 1806 10063 1785zM10740 1425L10740 1150L10430 1150L10120 1150L10120 1425L10120 1700L10430 1700L10740 1700L10740 1425z" stroke="none" fill="#000000" fill-rule="nonzero" />
        <path d="M11240 1425L11240 1050L11300 1050L11360 1050L11360 1340L11360 1630L11680 1340C 11987 1063 12002 1050 12040 1050L12040 1050L12080 1050L12080 1425L12080 1800L12019 1800L11959 1800L11962 1511L11965 1221L11890 1295C 11849 1335 11706 1465 11572 1584C 11333 1797 11329 1800 11285 1800L11285 1800L11240 1800L11240 1425z" stroke="none" fill="#000000" fill-rule="nonzero" />
        <path d="M12540 1782C 12486 1755 12475 1723 12475 1585C 12475 1380 12476 1380 12850 1380L12850 1380L13120 1380L13120 1265L13120 1150L12840 1150L12560 1150L12560 1215C 12560 1251 12557 1280 12553 1280C 12548 1280 12523 1274 12495 1266L12495 1266L12445 1253L12446 1199C 12447 1130 12472 1083 12515 1064C 12560 1045 13106 1045 13160 1063C 13220 1084 13235 1125 13235 1265C 13235 1480 13235 1480 12863 1480L12863 1480L12590 1480L12590 1590L12590 1700L12850 1700L13110 1700L13110 1645C 13110 1615 13114 1590 13118 1590C 13123 1590 13150 1597 13179 1606L13179 1606L13233 1622L13226 1667C 13217 1731 13191 1773 13150 1787C 13126 1795 13027 1799 12845 1799C 12607 1800 12571 1798 12540 1782z" stroke="none" fill="#000000" fill-rule="nonzero" />
        <path d="M760 737C 739 729 718 712 705 690C 686 657 685 639 685 375C 685 123 687 92 703 62C 735 4 757 0 1072 0C 1321 0 1359 2 1390 18C 1441 43 1460 88 1460 186L1460 186L1460 267L1428 273C 1410 276 1380 282 1363 286L1363 286L1330 292L1330 196L1330 100L1070 100L810 100L810 375L810 650L1070 650L1330 650L1330 565C 1330 518 1334 480 1338 480C 1343 480 1373 485 1405 492L1405 492L1462 503L1458 586C 1453 680 1436 714 1385 736C 1340 754 814 755 760 737z" stroke="none" fill="#000000" fill-rule="nonzero" />
        <path d="M1843 735C 1779 707 1775 687 1775 375C 1775 60 1779 42 1845 14C 1895 -7 2525 -7 2575 14C 2644 43 2645 50 2645 375C 2645 700 2644 707 2575 736C 2526 756 1890 756 1843 735zM2520 375L2520 100L2210 100L1900 100L1900 375L1900 650L2210 650L2520 650L2520 375z" stroke="none" fill="#000000" fill-rule="nonzero" />
        <path d="M2860 747C 2860 745 2945 650 3050 534L3050 534L3239 325L3240 163L3240 0L3305 0L3370 0L3370 168L3371 335L3516 495C 3595 583 3679 676 3701 703L3701 703L3742 750L3663 750L3585 750L3446 584L3306 418L3281 448C 3267 465 3201 540 3135 614L3135 614L3016 750L2938 750C 2895 750 2860 749 2860 747z" stroke="none" fill="#000000" fill-rule="nonzero" />
        <path d="M3993 735C 3929 707 3925 687 3925 375C 3925 60 3929 42 3995 14C 4045 -7 4675 -7 4725 14C 4794 43 4795 50 4795 375C 4795 700 4794 707 4725 736C 4676 756 4040 756 3993 735zM4670 375L4670 100L4360 100L4050 100L4050 375L4050 650L4360 650L4670 650L4670 375z" stroke="none" fill="#000000" fill-rule="nonzero" />
        <path d="M5000 700L5000 650L5170 650L5340 650L5340 325L5340 0L5405 0L5470 0L5470 325L5470 650L5640 650L5810 650L5810 700L5810 750L5405 750L5000 750L5000 700z" stroke="none" fill="#000000" fill-rule="nonzero" />
        <path d="M6020 375L6020 0L6390 0L6760 0L6760 50L6760 100L6455 100L6150 100L6150 220L6150 340L6335 340L6520 340L6520 390L6520 440L6335 440L6150 440L6150 545L6150 650L6450 650L6750 650L6750 700L6750 750L6385 750L6020 750L6020 375z" stroke="none" fill="#000000" fill-rule="nonzero" />
        <path d="M7050 375L7050 0L7115 0L7180 0L7180 145L7180 290L7450 290C 7749 290 7776 294 7804 349C 7816 372 7820 412 7820 520C 7820 759 7837 750 7386 750L7386 750L7050 750L7050 375zM7670 630C 7687 613 7690 597 7690 520C 7690 384 7703 390 7415 390L7415 390L7180 390L7180 520L7180 650L7415 650C 7637 650 7651 649 7670 630z" stroke="none" fill="#000000" fill-rule="nonzero" />
        <path d="M8120 375L8120 0L8185 0L8250 0L8250 145L8250 290L8361 290L8472 290L8623 145L8775 0L8868 0C 8918 0 8960 2 8960 4C 8960 6 8886 70 8795 147L8795 147L8629 285L8722 290C 8877 299 8890 317 8890 521C 8890 759 8907 750 8456 750L8456 750L8120 750L8120 375zM8738 634C 8758 620 8760 611 8760 520C 8760 383 8775 390 8483 390L8483 390L8250 390L8250 520L8250 650L8483 650C 8677 650 8719 647 8738 634z" stroke="none" fill="#000000" fill-rule="nonzero" />
        <path d="M9782 423C 9785 129 9787 92 9803 62C 9835 3 9856 0 10182 1C 10518 1 10535 4 10565 65C 10584 102 10585 129 10588 428L10588 428L10591 750L10526 750L10460 750L10460 425L10460 100L10185 100L9910 100L9910 425L9910 750L9844 750L9779 750L9782 423z" stroke="none" fill="#000000" fill-rule="nonzero" />
        <path d="M10970 375L10970 0L11035 0L11100 0L11100 166C 11100 257 11103 330 11108 328C 11112 327 11225 252 11358 162L11358 162L11600 -1L11705 2L11810 5L11515 195C 11353 300 11221 388 11223 392C 11224 396 11344 478 11490 574L11490 574L11755 750L11660 750L11565 750L11340 595C 11216 510 11112 440 11108 440C 11103 440 11100 510 11100 595L11100 595L11100 750L11035 750L10970 750L10970 375z" stroke="none" fill="#000000" fill-rule="nonzero" />
        <path d="M9234 146C 9231 139 9230 104 9232 69L9232 69L9235 5L9311 2C 9396 -1 9400 2 9400 80C 9400 156 9396 160 9314 160C 9260 160 9238 156 9234 146z" stroke="none" fill="#000000" fill-rule="nonzero" />
	</g>
</g>
</svg>