<?xml version="1.0" standalone="no"?>
<!DOCTYPE svg PUBLIC "-//W3C//DTD SVG 20010904//EN"
 "http://www.w3.org/TR/2001/REC-SVG-20010904/DTD/svg10.dtd">
<svg version="1.0" xmlns="http://www.w3.org/2000/svg"
 width="406.000000pt" height="406.000000pt" viewBox="0 0 406.000000 406.000000"
 preserveAspectRatio="xMidYMid meet">

<g transform="translate(0.000000,406.000000) scale(0.100000,-0.100000)"
fill="#000000" stroke="none">
<path d="M1760 4045 c-1014 -139 -1761 -996 -1760 -2018 1 -777 430 -1468
1127 -1817 569 -284 1240 -281 1818 7 201 101 354 211 521 378 171 171 281
325 391 550 137 282 203 569 203 885 0 1023 -753 1881 -1768 2015 -136 18
-400 18 -532 0z m597 -75 c560 -96 1047 -425 1347 -909 173 -280 263 -566 291
-923 l6 -78 -1971 0 -1971 0 6 88 c10 138 44 327 80 447 233 766 905 1318
1703 1395 128 13 374 3 509 -20z"/>
</g>
</svg>
