<svg version="1.1" xmlns="http://www.w3.org/2000/svg" xmlns:xlink="http://www.w3.org/1999/xlink" width="1248" height="61" viewBox="0,0,1248,61"><g id="1 &quot;in. Tick Group" fill="none" fill-rule="nonzero" stroke="none" stroke-width="none" stroke-linecap="butt" stroke-linejoin="miter" stroke-miterlimit="10" stroke-dasharray="" stroke-dashoffset="0" font-family="none" font-weight="none" font-size="none" text-anchor="none" style="mix-blend-mode: normal"><path d="M0,0v11.33856" id="1 &quot;in. Tick no. 0" fill="none" stroke="#000000" stroke-width="1"/><text x="4" y="12.33856" id="1 &quot;in. label no. 0" fill="#000000" stroke="none" stroke-width="1" font-family="monospace" font-weight="bold" font-size="18" text-anchor="start">0</text><path d="M96,0v11.33856" id="1 &quot;in. Tick no. 1" fill="none" stroke="#000000" stroke-width="1"/><text x="100" y="12.33856" id="1 &quot;in. label no. 1" fill="#000000" stroke="none" stroke-width="1" font-family="monospace" font-weight="bold" font-size="18" text-anchor="start">1</text><path d="M192,0v11.33856" id="1 &quot;in. Tick no. 2" fill="none" stroke="#000000" stroke-width="1"/><text x="196" y="12.33856" id="1 &quot;in. label no. 2" fill="#000000" stroke="none" stroke-width="1" font-family="monospace" font-weight="bold" font-size="18" text-anchor="start">2</text><path d="M288,0v11.33856" id="1 &quot;in. Tick no. 3" fill="none" stroke="#000000" stroke-width="1"/><text x="292" y="12.33856" id="1 &quot;in. label no. 3" fill="#000000" stroke="none" stroke-width="1" font-family="monospace" font-weight="bold" font-size="18" text-anchor="start">3</text><path d="M384,0v11.33856" id="1 &quot;in. Tick no. 4" fill="none" stroke="#000000" stroke-width="1"/><text x="388" y="12.33856" id="1 &quot;in. label no. 4" fill="#000000" stroke="none" stroke-width="1" font-family="monospace" font-weight="bold" font-size="18" text-anchor="start">4</text><path d="M480,0v11.33856" id="1 &quot;in. Tick no. 5" fill="none" stroke="#000000" stroke-width="1"/><text x="484" y="12.33856" id="1 &quot;in. label no. 5" fill="#000000" stroke="none" stroke-width="1" font-family="monospace" font-weight="bold" font-size="18" text-anchor="start">5</text><path d="M576,0v11.33856" id="1 &quot;in. Tick no. 6" fill="none" stroke="#000000" stroke-width="1"/><text x="580" y="12.33856" id="1 &quot;in. label no. 6" fill="#000000" stroke="none" stroke-width="1" font-family="monospace" font-weight="bold" font-size="18" text-anchor="start">6</text><path d="M672,0v11.33856" id="1 &quot;in. Tick no. 7" fill="none" stroke="#000000" stroke-width="1"/><text x="676" y="12.33856" id="1 &quot;in. label no. 7" fill="#000000" stroke="none" stroke-width="1" font-family="monospace" font-weight="bold" font-size="18" text-anchor="start">7</text><path d="M768,0v11.33856" id="1 &quot;in. Tick no. 8" fill="none" stroke="#000000" stroke-width="1"/><text x="772" y="12.33856" id="1 &quot;in. label no. 8" fill="#000000" stroke="none" stroke-width="1" font-family="monospace" font-weight="bold" font-size="18" text-anchor="start">8</text><path d="M864,0v11.33856" id="1 &quot;in. Tick no. 9" fill="none" stroke="#000000" stroke-width="1"/><text x="868" y="12.33856" id="1 &quot;in. label no. 9" fill="#000000" stroke="none" stroke-width="1" font-family="monospace" font-weight="bold" font-size="18" text-anchor="start">9</text><path d="M960,0v11.33856" id="1 &quot;in. Tick no. 10" fill="none" stroke="#000000" stroke-width="1"/><text x="964" y="12.33856" id="1 &quot;in. label no. 10" fill="#000000" stroke="none" stroke-width="1" font-family="monospace" font-weight="bold" font-size="18" text-anchor="start">10</text><path d="M1056,0v11.33856" id="1 &quot;in. Tick no. 11" fill="none" stroke="#000000" stroke-width="1"/><text x="1060" y="12.33856" id="1 &quot;in. label no. 11" fill="#000000" stroke="none" stroke-width="1" font-family="monospace" font-weight="bold" font-size="18" text-anchor="start">11</text><path d="M1152,0v11.33856" id="1 &quot;in. Tick no. 12" fill="none" stroke="#000000" stroke-width="1"/><text x="1156" y="12.33856" id="1 &quot;in. label no. 12" fill="#000000" stroke="none" stroke-width="1" font-family="monospace" font-weight="bold" font-size="18" text-anchor="start">12</text><path d="M1248,0v11.33856" id="1 &quot;in. Tick no. 13" fill="none" stroke="#000000" stroke-width="1"/><text x="1252" y="12.33856" id="1 &quot;in. label no. 13" fill="#000000" stroke="none" stroke-width="1" font-family="monospace" font-weight="bold" font-size="18" text-anchor="start">13</text><path d="M1344,0v11.33856" id="1 &quot;in. Tick no. 14" fill="none" stroke="#000000" stroke-width="1"/><text x="1348" y="12.33856" id="1 &quot;in. label no. 14" fill="#000000" stroke="none" stroke-width="1" font-family="monospace" font-weight="bold" font-size="18" text-anchor="start">14</text><path d="M1440,0v11.33856" id="1 &quot;in. Tick no. 15" fill="none" stroke="#000000" stroke-width="1"/><text x="1436" y="12.33856" id="1 &quot;in. label no. 15" fill="#000000" stroke="none" stroke-width="1" font-family="monospace" font-weight="bold" font-size="18" text-anchor="end">15</text></g><g id="1/2 &quot;in. Tick Group" fill="none" fill-rule="nonzero" stroke="#000000" stroke-width="1" stroke-linecap="butt" stroke-linejoin="miter" stroke-miterlimit="10" stroke-dasharray="" stroke-dashoffset="0" font-family="none" font-weight="none" font-size="none" text-anchor="none" style="mix-blend-mode: normal"><path d="M48,0v5.66928" id="1/2 &quot;in. Tick no. 1"/><path d="M144,0v5.66928" id="1/2 &quot;in. Tick no. 3"/><path d="M240,0v5.66928" id="1/2 &quot;in. Tick no. 5"/><path d="M336,0v5.66928" id="1/2 &quot;in. Tick no. 7"/><path d="M432,0v5.66928" id="1/2 &quot;in. Tick no. 9"/><path d="M528,0v5.66928" id="1/2 &quot;in. Tick no. 11"/><path d="M624,0v5.66928" id="1/2 &quot;in. Tick no. 13"/><path d="M720,0v5.66928" id="1/2 &quot;in. Tick no. 15"/><path d="M816,0v5.66928" id="1/2 &quot;in. Tick no. 17"/><path d="M912,0v5.66928" id="1/2 &quot;in. Tick no. 19"/><path d="M1008,0v5.66928" id="1/2 &quot;in. Tick no. 21"/><path d="M1104,0v5.66928" id="1/2 &quot;in. Tick no. 23"/><path d="M1200,0v5.66928" id="1/2 &quot;in. Tick no. 25"/><path d="M1296,0v5.66928" id="1/2 &quot;in. Tick no. 27"/><path d="M1392,0v5.66928" id="1/2 &quot;in. Tick no. 29"/></g><g id="1/4 &quot;in. Tick Group" fill="none" fill-rule="nonzero" stroke="#000000" stroke-width="1" stroke-linecap="butt" stroke-linejoin="miter" stroke-miterlimit="10" stroke-dasharray="" stroke-dashoffset="0" font-family="none" font-weight="none" font-size="none" text-anchor="none" style="mix-blend-mode: normal"><path d="M24,0v2.83464" id="1/4 &quot;in. Tick no. 1"/><path d="M72,0v2.83464" id="1/4 &quot;in. Tick no. 3"/><path d="M120,0v2.83464" id="1/4 &quot;in. Tick no. 5"/><path d="M168,0v2.83464" id="1/4 &quot;in. Tick no. 7"/><path d="M216,0v2.83464" id="1/4 &quot;in. Tick no. 9"/><path d="M264,0v2.83464" id="1/4 &quot;in. Tick no. 11"/><path d="M312,0v2.83464" id="1/4 &quot;in. Tick no. 13"/><path d="M360,0v2.83464" id="1/4 &quot;in. Tick no. 15"/><path d="M408,0v2.83464" id="1/4 &quot;in. Tick no. 17"/><path d="M456,0v2.83464" id="1/4 &quot;in. Tick no. 19"/><path d="M504,0v2.83464" id="1/4 &quot;in. Tick no. 21"/><path d="M552,0v2.83464" id="1/4 &quot;in. Tick no. 23"/><path d="M600,0v2.83464" id="1/4 &quot;in. Tick no. 25"/><path d="M648,0v2.83464" id="1/4 &quot;in. Tick no. 27"/><path d="M696,0v2.83464" id="1/4 &quot;in. Tick no. 29"/><path d="M744,0v2.83464" id="1/4 &quot;in. Tick no. 31"/><path d="M792,0v2.83464" id="1/4 &quot;in. Tick no. 33"/><path d="M840,0v2.83464" id="1/4 &quot;in. Tick no. 35"/><path d="M888,0v2.83464" id="1/4 &quot;in. Tick no. 37"/><path d="M936,0v2.83464" id="1/4 &quot;in. Tick no. 39"/><path d="M984,0v2.83464" id="1/4 &quot;in. Tick no. 41"/><path d="M1032,0v2.83464" id="1/4 &quot;in. Tick no. 43"/><path d="M1080,0v2.83464" id="1/4 &quot;in. Tick no. 45"/><path d="M1128,0v2.83464" id="1/4 &quot;in. Tick no. 47"/><path d="M1176,0v2.83464" id="1/4 &quot;in. Tick no. 49"/><path d="M1224,0v2.83464" id="1/4 &quot;in. Tick no. 51"/><path d="M1272,0v2.83464" id="1/4 &quot;in. Tick no. 53"/><path d="M1320,0v2.83464" id="1/4 &quot;in. Tick no. 55"/><path d="M1368,0v2.83464" id="1/4 &quot;in. Tick no. 57"/><path d="M1416,0v2.83464" id="1/4 &quot;in. Tick no. 59"/></g><g id="1/8 &quot;in. Tick Group" fill="none" fill-rule="nonzero" stroke="#000000" stroke-width="1" stroke-linecap="butt" stroke-linejoin="miter" stroke-miterlimit="10" stroke-dasharray="" stroke-dashoffset="0" font-family="none" font-weight="none" font-size="none" text-anchor="none" style="mix-blend-mode: normal"><path d="M12,0v1.41732" id="1/8 &quot;in. Tick no. 1"/><path d="M36,0v1.41732" id="1/8 &quot;in. Tick no. 3"/><path d="M60,0v1.41732" id="1/8 &quot;in. Tick no. 5"/><path d="M84,0v1.41732" id="1/8 &quot;in. Tick no. 7"/><path d="M108,0v1.41732" id="1/8 &quot;in. Tick no. 9"/><path d="M132,0v1.41732" id="1/8 &quot;in. Tick no. 11"/><path d="M156,0v1.41732" id="1/8 &quot;in. Tick no. 13"/><path d="M180,0v1.41732" id="1/8 &quot;in. Tick no. 15"/><path d="M204,0v1.41732" id="1/8 &quot;in. Tick no. 17"/><path d="M228,0v1.41732" id="1/8 &quot;in. Tick no. 19"/><path d="M252,0v1.41732" id="1/8 &quot;in. Tick no. 21"/><path d="M276,0v1.41732" id="1/8 &quot;in. Tick no. 23"/><path d="M300,0v1.41732" id="1/8 &quot;in. Tick no. 25"/><path d="M324,0v1.41732" id="1/8 &quot;in. Tick no. 27"/><path d="M348,0v1.41732" id="1/8 &quot;in. Tick no. 29"/><path d="M372,0v1.41732" id="1/8 &quot;in. Tick no. 31"/><path d="M396,0v1.41732" id="1/8 &quot;in. Tick no. 33"/><path d="M420,0v1.41732" id="1/8 &quot;in. Tick no. 35"/><path d="M444,0v1.41732" id="1/8 &quot;in. Tick no. 37"/><path d="M468,0v1.41732" id="1/8 &quot;in. Tick no. 39"/><path d="M492,0v1.41732" id="1/8 &quot;in. Tick no. 41"/><path d="M516,0v1.41732" id="1/8 &quot;in. Tick no. 43"/><path d="M540,0v1.41732" id="1/8 &quot;in. Tick no. 45"/><path d="M564,0v1.41732" id="1/8 &quot;in. Tick no. 47"/><path d="M588,0v1.41732" id="1/8 &quot;in. Tick no. 49"/><path d="M612,0v1.41732" id="1/8 &quot;in. Tick no. 51"/><path d="M636,0v1.41732" id="1/8 &quot;in. Tick no. 53"/><path d="M660,0v1.41732" id="1/8 &quot;in. Tick no. 55"/><path d="M684,0v1.41732" id="1/8 &quot;in. Tick no. 57"/><path d="M708,0v1.41732" id="1/8 &quot;in. Tick no. 59"/><path d="M732,0v1.41732" id="1/8 &quot;in. Tick no. 61"/><path d="M756,0v1.41732" id="1/8 &quot;in. Tick no. 63"/><path d="M780,0v1.41732" id="1/8 &quot;in. Tick no. 65"/><path d="M804,0v1.41732" id="1/8 &quot;in. Tick no. 67"/><path d="M828,0v1.41732" id="1/8 &quot;in. Tick no. 69"/><path d="M852,0v1.41732" id="1/8 &quot;in. Tick no. 71"/><path d="M876,0v1.41732" id="1/8 &quot;in. Tick no. 73"/><path d="M900,0v1.41732" id="1/8 &quot;in. Tick no. 75"/><path d="M924,0v1.41732" id="1/8 &quot;in. Tick no. 77"/><path d="M948,0v1.41732" id="1/8 &quot;in. Tick no. 79"/><path d="M972,0v1.41732" id="1/8 &quot;in. Tick no. 81"/><path d="M996,0v1.41732" id="1/8 &quot;in. Tick no. 83"/><path d="M1020,0v1.41732" id="1/8 &quot;in. Tick no. 85"/><path d="M1044,0v1.41732" id="1/8 &quot;in. Tick no. 87"/><path d="M1068,0v1.41732" id="1/8 &quot;in. Tick no. 89"/><path d="M1092,0v1.41732" id="1/8 &quot;in. Tick no. 91"/><path d="M1116,0v1.41732" id="1/8 &quot;in. Tick no. 93"/><path d="M1140,0v1.41732" id="1/8 &quot;in. Tick no. 95"/><path d="M1164,0v1.41732" id="1/8 &quot;in. Tick no. 97"/><path d="M1188,0v1.41732" id="1/8 &quot;in. Tick no. 99"/><path d="M1212,0v1.41732" id="1/8 &quot;in. Tick no. 101"/><path d="M1236,0v1.41732" id="1/8 &quot;in. Tick no. 103"/><path d="M1260,0v1.41732" id="1/8 &quot;in. Tick no. 105"/><path d="M1284,0v1.41732" id="1/8 &quot;in. Tick no. 107"/><path d="M1308,0v1.41732" id="1/8 &quot;in. Tick no. 109"/><path d="M1332,0v1.41732" id="1/8 &quot;in. Tick no. 111"/><path d="M1356,0v1.41732" id="1/8 &quot;in. Tick no. 113"/><path d="M1380,0v1.41732" id="1/8 &quot;in. Tick no. 115"/><path d="M1404,0v1.41732" id="1/8 &quot;in. Tick no. 117"/><path d="M1428,0v1.41732" id="1/8 &quot;in. Tick no. 119"/></g><g id="1/16 &quot;in. Tick Group" fill="none" fill-rule="nonzero" stroke="#000000" stroke-width="1" stroke-linecap="butt" stroke-linejoin="miter" stroke-miterlimit="10" stroke-dasharray="" stroke-dashoffset="0" font-family="none" font-weight="none" font-size="none" text-anchor="none" style="mix-blend-mode: normal"><path d="M6,0v0.70866" id="1/16 &quot;in. Tick no. 1"/><path d="M18,0v0.70866" id="1/16 &quot;in. Tick no. 3"/><path d="M30,0v0.70866" id="1/16 &quot;in. Tick no. 5"/><path d="M42,0v0.70866" id="1/16 &quot;in. Tick no. 7"/><path d="M54,0v0.70866" id="1/16 &quot;in. Tick no. 9"/><path d="M66,0v0.70866" id="1/16 &quot;in. Tick no. 11"/><path d="M78,0v0.70866" id="1/16 &quot;in. Tick no. 13"/><path d="M90,0v0.70866" id="1/16 &quot;in. Tick no. 15"/><path d="M102,0v0.70866" id="1/16 &quot;in. Tick no. 17"/><path d="M114,0v0.70866" id="1/16 &quot;in. Tick no. 19"/><path d="M126,0v0.70866" id="1/16 &quot;in. Tick no. 21"/><path d="M138,0v0.70866" id="1/16 &quot;in. Tick no. 23"/><path d="M150,0v0.70866" id="1/16 &quot;in. Tick no. 25"/><path d="M162,0v0.70866" id="1/16 &quot;in. Tick no. 27"/><path d="M174,0v0.70866" id="1/16 &quot;in. Tick no. 29"/><path d="M186,0v0.70866" id="1/16 &quot;in. Tick no. 31"/><path d="M198,0v0.70866" id="1/16 &quot;in. Tick no. 33"/><path d="M210,0v0.70866" id="1/16 &quot;in. Tick no. 35"/><path d="M222,0v0.70866" id="1/16 &quot;in. Tick no. 37"/><path d="M234,0v0.70866" id="1/16 &quot;in. Tick no. 39"/><path d="M246,0v0.70866" id="1/16 &quot;in. Tick no. 41"/><path d="M258,0v0.70866" id="1/16 &quot;in. Tick no. 43"/><path d="M270,0v0.70866" id="1/16 &quot;in. Tick no. 45"/><path d="M282,0v0.70866" id="1/16 &quot;in. Tick no. 47"/><path d="M294,0v0.70866" id="1/16 &quot;in. Tick no. 49"/><path d="M306,0v0.70866" id="1/16 &quot;in. Tick no. 51"/><path d="M318,0v0.70866" id="1/16 &quot;in. Tick no. 53"/><path d="M330,0v0.70866" id="1/16 &quot;in. Tick no. 55"/><path d="M342,0v0.70866" id="1/16 &quot;in. Tick no. 57"/><path d="M354,0v0.70866" id="1/16 &quot;in. Tick no. 59"/><path d="M366,0v0.70866" id="1/16 &quot;in. Tick no. 61"/><path d="M378,0v0.70866" id="1/16 &quot;in. Tick no. 63"/><path d="M390,0v0.70866" id="1/16 &quot;in. Tick no. 65"/><path d="M402,0v0.70866" id="1/16 &quot;in. Tick no. 67"/><path d="M414,0v0.70866" id="1/16 &quot;in. Tick no. 69"/><path d="M426,0v0.70866" id="1/16 &quot;in. Tick no. 71"/><path d="M438,0v0.70866" id="1/16 &quot;in. Tick no. 73"/><path d="M450,0v0.70866" id="1/16 &quot;in. Tick no. 75"/><path d="M462,0v0.70866" id="1/16 &quot;in. Tick no. 77"/><path d="M474,0v0.70866" id="1/16 &quot;in. Tick no. 79"/><path d="M486,0v0.70866" id="1/16 &quot;in. Tick no. 81"/><path d="M498,0v0.70866" id="1/16 &quot;in. Tick no. 83"/><path d="M510,0v0.70866" id="1/16 &quot;in. Tick no. 85"/><path d="M522,0v0.70866" id="1/16 &quot;in. Tick no. 87"/><path d="M534,0v0.70866" id="1/16 &quot;in. Tick no. 89"/><path d="M546,0v0.70866" id="1/16 &quot;in. Tick no. 91"/><path d="M558,0v0.70866" id="1/16 &quot;in. Tick no. 93"/><path d="M570,0v0.70866" id="1/16 &quot;in. Tick no. 95"/><path d="M582,0v0.70866" id="1/16 &quot;in. Tick no. 97"/><path d="M594,0v0.70866" id="1/16 &quot;in. Tick no. 99"/><path d="M606,0v0.70866" id="1/16 &quot;in. Tick no. 101"/><path d="M618,0v0.70866" id="1/16 &quot;in. Tick no. 103"/><path d="M630,0v0.70866" id="1/16 &quot;in. Tick no. 105"/><path d="M642,0v0.70866" id="1/16 &quot;in. Tick no. 107"/><path d="M654,0v0.70866" id="1/16 &quot;in. Tick no. 109"/><path d="M666,0v0.70866" id="1/16 &quot;in. Tick no. 111"/><path d="M678,0v0.70866" id="1/16 &quot;in. Tick no. 113"/><path d="M690,0v0.70866" id="1/16 &quot;in. Tick no. 115"/><path d="M702,0v0.70866" id="1/16 &quot;in. Tick no. 117"/><path d="M714,0v0.70866" id="1/16 &quot;in. Tick no. 119"/><path d="M726,0v0.70866" id="1/16 &quot;in. Tick no. 121"/><path d="M738,0v0.70866" id="1/16 &quot;in. Tick no. 123"/><path d="M750,0v0.70866" id="1/16 &quot;in. Tick no. 125"/><path d="M762,0v0.70866" id="1/16 &quot;in. Tick no. 127"/><path d="M774,0v0.70866" id="1/16 &quot;in. Tick no. 129"/><path d="M786,0v0.70866" id="1/16 &quot;in. Tick no. 131"/><path d="M798,0v0.70866" id="1/16 &quot;in. Tick no. 133"/><path d="M810,0v0.70866" id="1/16 &quot;in. Tick no. 135"/><path d="M822,0v0.70866" id="1/16 &quot;in. Tick no. 137"/><path d="M834,0v0.70866" id="1/16 &quot;in. Tick no. 139"/><path d="M846,0v0.70866" id="1/16 &quot;in. Tick no. 141"/><path d="M858,0v0.70866" id="1/16 &quot;in. Tick no. 143"/><path d="M870,0v0.70866" id="1/16 &quot;in. Tick no. 145"/><path d="M882,0v0.70866" id="1/16 &quot;in. Tick no. 147"/><path d="M894,0v0.70866" id="1/16 &quot;in. Tick no. 149"/><path d="M906,0v0.70866" id="1/16 &quot;in. Tick no. 151"/><path d="M918,0v0.70866" id="1/16 &quot;in. Tick no. 153"/><path d="M930,0v0.70866" id="1/16 &quot;in. Tick no. 155"/><path d="M942,0v0.70866" id="1/16 &quot;in. Tick no. 157"/><path d="M954,0v0.70866" id="1/16 &quot;in. Tick no. 159"/><path d="M966,0v0.70866" id="1/16 &quot;in. Tick no. 161"/><path d="M978,0v0.70866" id="1/16 &quot;in. Tick no. 163"/><path d="M990,0v0.70866" id="1/16 &quot;in. Tick no. 165"/><path d="M1002,0v0.70866" id="1/16 &quot;in. Tick no. 167"/><path d="M1014,0v0.70866" id="1/16 &quot;in. Tick no. 169"/><path d="M1026,0v0.70866" id="1/16 &quot;in. Tick no. 171"/><path d="M1038,0v0.70866" id="1/16 &quot;in. Tick no. 173"/><path d="M1050,0v0.70866" id="1/16 &quot;in. Tick no. 175"/><path d="M1062,0v0.70866" id="1/16 &quot;in. Tick no. 177"/><path d="M1074,0v0.70866" id="1/16 &quot;in. Tick no. 179"/><path d="M1086,0v0.70866" id="1/16 &quot;in. Tick no. 181"/><path d="M1098,0v0.70866" id="1/16 &quot;in. Tick no. 183"/><path d="M1110,0v0.70866" id="1/16 &quot;in. Tick no. 185"/><path d="M1122,0v0.70866" id="1/16 &quot;in. Tick no. 187"/><path d="M1134,0v0.70866" id="1/16 &quot;in. Tick no. 189"/><path d="M1146,0v0.70866" id="1/16 &quot;in. Tick no. 191"/><path d="M1158,0v0.70866" id="1/16 &quot;in. Tick no. 193"/><path d="M1170,0v0.70866" id="1/16 &quot;in. Tick no. 195"/><path d="M1182,0v0.70866" id="1/16 &quot;in. Tick no. 197"/><path d="M1194,0v0.70866" id="1/16 &quot;in. Tick no. 199"/><path d="M1206,0v0.70866" id="1/16 &quot;in. Tick no. 201"/><path d="M1218,0v0.70866" id="1/16 &quot;in. Tick no. 203"/><path d="M1230,0v0.70866" id="1/16 &quot;in. Tick no. 205"/><path d="M1242,0v0.70866" id="1/16 &quot;in. Tick no. 207"/><path d="M1254,0v0.70866" id="1/16 &quot;in. Tick no. 209"/><path d="M1266,0v0.70866" id="1/16 &quot;in. Tick no. 211"/><path d="M1278,0v0.70866" id="1/16 &quot;in. Tick no. 213"/><path d="M1290,0v0.70866" id="1/16 &quot;in. Tick no. 215"/><path d="M1302,0v0.70866" id="1/16 &quot;in. Tick no. 217"/><path d="M1314,0v0.70866" id="1/16 &quot;in. Tick no. 219"/><path d="M1326,0v0.70866" id="1/16 &quot;in. Tick no. 221"/><path d="M1338,0v0.70866" id="1/16 &quot;in. Tick no. 223"/><path d="M1350,0v0.70866" id="1/16 &quot;in. Tick no. 225"/><path d="M1362,0v0.70866" id="1/16 &quot;in. Tick no. 227"/><path d="M1374,0v0.70866" id="1/16 &quot;in. Tick no. 229"/><path d="M1386,0v0.70866" id="1/16 &quot;in. Tick no. 231"/><path d="M1398,0v0.70866" id="1/16 &quot;in. Tick no. 233"/><path d="M1410,0v0.70866" id="1/16 &quot;in. Tick no. 235"/><path d="M1422,0v0.70866" id="1/16 &quot;in. Tick no. 237"/><path d="M1434,0v0.70866" id="1/16 &quot;in. Tick no. 239"/></g></svg>