<?xml version="1.0" standalone="no"?>
<!DOCTYPE svg PUBLIC "-//W3C//DTD SVG 20010904//EN"
 "http://www.w3.org/TR/2001/REC-SVG-20010904/DTD/svg10.dtd">
<svg version="1.0" xmlns="http://www.w3.org/2000/svg"
 width="2560.000000pt" height="1920.000000pt" viewBox="0 0 2560.000000 1920.000000"
 preserveAspectRatio="xMidYMid meet">

<g transform="translate(0.000000,1920.000000) scale(0.100000,-0.100000)"
fill="#000000" stroke="none">
<path d="M2937 17808 c-3 -1293 -4 -1398 -21 -1468 -27 -117 -62 -184 -122
-239 -75 -69 -144 -91 -306 -98 l-128 -6 0 -160 0 -160 168 6 c191 7 295 28
407 82 196 95 308 267 362 556 16 86 18 211 20 1487 l4 1392 -190 0 -190 0 -4
-1392z"/>
<path d="M9215 18546 c-37 -17 -70 -52 -84 -89 -7 -18 -11 -150 -11 -363 l0
-334 -2349 -2 -2350 -3 -27 -21 c-53 -39 -69 -71 -69 -134 0 -63 16 -95 69
-134 l27 -21 2350 -3 2349 -2 0 -640 0 -640 -1549 -2 c-1547 -3 -1550 -3
-1577 -24 -15 -11 -37 -33 -48 -48 l-21 -27 -3 -3092 -2 -3092 -35 -23 c-19
-12 -45 -38 -57 -57 l-23 -34 -692 -3 c-681 -3 -692 -3 -719 -24 -53 -39 -69
-71 -69 -134 0 -63 16 -95 69 -134 27 -21 38 -21 719 -24 l692 -2 23 -34 c13
-19 39 -45 58 -58 l34 -23 2 -3092 3 -3092 21 -27 c11 -15 33 -37 48 -48 27
-21 30 -21 1577 -24 l1549 -2 0 -640 0 -640 -2349 -2 -2350 -3 -27 -21 c-53
-39 -69 -71 -69 -134 0 -63 16 -95 69 -134 l27 -21 2349 -3 2349 -2 3 -349 c3
-335 4 -351 24 -377 11 -15 33 -37 48 -48 27 -21 38 -21 574 -21 476 0 562 2
662 18 254 39 459 102 665 202 638 309 1083 929 1244 1731 l27 131 44 -34 c25
-19 77 -50 117 -69 335 -161 732 -2 870 349 l26 67 648 0 649 0 2 -749 c3
-739 3 -750 24 -777 11 -15 33 -37 48 -48 27 -21 38 -21 574 -21 476 0 562 2
662 18 254 39 459 102 665 202 638 309 1083 929 1244 1731 l27 131 44 -34 c25
-19 77 -50 117 -69 335 -161 732 -2 870 349 l26 67 594 0 c334 0 593 -4 593
-9 0 -19 82 -92 132 -118 46 -23 65 -27 138 -27 73 0 92 4 138 27 50 26 132
99 132 118 0 5 312 10 694 11 684 3 695 3 722 24 53 39 69 71 69 134 0 63 -16
95 -69 134 -27 21 -38 21 -719 24 l-692 2 -23 34 c-13 19 -39 45 -58 58 l-34
23 0 1878 c0 2024 3 1915 -51 1964 -13 11 -761 349 -1661 749 -901 400 -1638
730 -1638 734 0 4 737 334 1638 734 900 400 1648 738 1661 749 54 49 51 -60
51 1964 l0 1878 34 23 c19 13 45 39 58 58 l23 34 692 2 c681 3 692 3 719 24
53 39 69 71 69 134 0 63 -16 95 -69 134 -27 21 -38 21 -719 24 l-692 2 -20 31
c-23 35 -95 89 -145 110 -47 19 -184 17 -230 -4 -54 -24 -116 -73 -136 -106
l-18 -31 -592 0 -591 0 -26 68 c-138 350 -535 509 -870 348 -40 -19 -92 -50
-117 -69 l-44 -34 -27 131 c-198 986 -822 1684 -1689 1890 -242 58 -289 61
-882 61 -536 0 -547 0 -574 -21 -15 -11 -37 -33 -48 -48 -21 -27 -21 -38 -24
-777 l-2 -749 -649 0 -648 0 -26 68 c-138 350 -535 509 -870 348 -40 -19 -92
-50 -117 -69 l-44 -34 -27 131 c-198 986 -822 1685 -1689 1890 -236 56 -274
59 -860 63 -447 2 -550 1 -575 -11z m1202 -330 c308 -51 592 -168 820 -340
433 -325 715 -837 815 -1481 18 -116 22 -183 22 -395 0 -212 -4 -279 -22 -395
-143 -922 -664 -1572 -1424 -1775 -217 -57 -274 -63 -750 -67 l-438 -5 0 2242
0 2242 438 -5 c346 -3 458 -8 539 -21z m5600 -800 c308 -51 592 -168 820 -340
433 -325 715 -837 815 -1481 18 -116 22 -183 22 -395 0 -212 -4 -279 -22 -395
-143 -922 -664 -1572 -1424 -1775 -217 -57 -274 -63 -750 -67 l-438 -5 0 2242
0 2242 438 -5 c346 -3 458 -8 539 -21z m-3119 -1112 c76 -25 140 -79 181 -154
33 -60 36 -71 36 -150 0 -77 -3 -91 -34 -148 -38 -70 -70 -100 -145 -140 -44
-22 -63 -26 -136 -26 -69 0 -94 4 -135 24 -104 51 -173 152 -183 267 -18 223
202 396 416 327z m-3778 -1104 l0 -640 -749 -2 c-739 -3 -750 -3 -777 -24 -15
-11 -37 -33 -48 -48 l-21 -27 0 -1659 0 -1659 21 -27 c11 -15 33 -37 48 -48
l27 -21 2695 -3 c1528 -1 2694 -6 2694 -11 0 -19 82 -92 132 -118 46 -23 65
-27 138 -27 73 0 92 4 138 27 l53 28 1504 -668 c828 -367 1504 -670 1504 -673
0 -3 -676 -305 -1503 -673 l-1504 -667 -53 27 c-47 24 -65 27 -139 27 -55 0
-97 -6 -120 -17 -54 -24 -116 -73 -136 -106 l-18 -31 -2692 -2 -2693 -3 -27
-21 c-15 -11 -37 -33 -48 -48 l-21 -27 0 -1659 0 -1659 21 -27 c11 -15 33 -37
48 -48 27 -21 38 -21 777 -24 l749 -2 0 -640 0 -640 -1440 0 -1440 0 0 2985
c0 1710 4 2985 9 2985 19 0 92 82 118 132 23 46 27 65 27 138 0 73 -4 92 -27
138 -26 50 -99 132 -118 132 -5 0 -9 1275 -9 2985 l0 2985 1440 0 1440 0 0
-640z m5600 0 l0 -640 -749 -2 c-739 -3 -750 -3 -777 -24 -15 -11 -37 -33 -48
-48 -21 -27 -21 -30 -24 -1519 l-2 -1492 -35 -23 c-19 -12 -45 -38 -57 -57
l-23 -35 -2582 0 -2583 0 0 1440 0 1440 640 0 639 0 3 -349 c3 -335 4 -351 24
-377 11 -15 33 -37 48 -48 27 -21 38 -21 574 -21 476 0 562 2 662 18 254 39
459 102 665 202 638 309 1083 929 1244 1731 l27 131 44 -34 c25 -19 77 -50
117 -69 335 -161 732 -2 870 349 l26 67 649 0 648 0 0 -640z m3778 304 c76
-25 140 -79 181 -154 33 -60 36 -71 36 -150 0 -77 -3 -91 -34 -148 -38 -70
-70 -100 -145 -140 -44 -22 -63 -26 -136 -26 -69 0 -94 4 -135 24 -104 51
-173 152 -183 267 -18 223 202 396 416 327z m1730 -498 c13 -19 39 -45 58 -58
l34 -23 0 -1811 0 -1811 -1716 -762 c-944 -420 -1723 -761 -1733 -758 -9 2
-749 329 -1644 727 -1489 662 -1628 726 -1633 749 -11 55 -51 126 -92 168 -24
24 -48 43 -53 43 -5 0 -9 547 -9 1385 l0 1385 640 0 640 0 2 -749 c3 -739 3
-750 24 -777 11 -15 33 -37 48 -48 27 -21 38 -21 574 -21 476 0 562 2 662 18
254 39 459 102 665 202 638 309 1083 929 1244 1731 l27 131 44 -34 c25 -19 77
-50 117 -69 335 -161 732 -2 870 349 l26 67 591 0 591 0 23 -34z m-1622 -6348
l1714 -761 0 -1811 0 -1811 -35 -23 c-19 -12 -45 -38 -57 -57 l-23 -35 -591 0
-591 0 -26 68 c-138 350 -535 509 -870 348 -40 -19 -92 -50 -117 -69 l-44 -34
-27 131 c-198 986 -822 1684 -1689 1890 -242 58 -289 61 -882 61 -536 0 -547
0 -574 -21 -15 -11 -37 -33 -48 -48 -21 -27 -21 -38 -24 -777 l-2 -749 -640 0
-640 0 0 1385 c0 838 4 1385 9 1385 5 0 29 19 53 43 41 42 81 113 92 168 5 23
144 87 1638 752 898 399 1639 726 1647 726 7 1 785 -342 1727 -761z m-5578
-852 c13 -19 39 -45 58 -58 l34 -23 2 -1492 c3 -1489 3 -1492 24 -1519 11 -15
33 -37 48 -48 27 -21 38 -21 777 -24 l749 -2 0 -640 0 -640 -648 0 -649 0 -26
68 c-138 350 -535 509 -870 348 -40 -19 -92 -50 -117 -69 l-44 -34 -27 131
c-198 986 -822 1684 -1689 1890 -242 58 -289 61 -882 61 -536 0 -547 0 -574
-21 -15 -11 -37 -33 -48 -48 -20 -26 -21 -42 -24 -377 l-3 -349 -639 0 -640 0
0 1440 0 1440 2583 0 2582 0 23 -34z m2989 -1590 c308 -51 592 -168 820 -340
433 -325 715 -837 815 -1481 18 -116 22 -183 22 -395 0 -212 -4 -279 -22 -395
-143 -922 -664 -1572 -1424 -1775 -217 -57 -274 -63 -750 -67 l-438 -5 0 2242
0 2242 438 -5 c346 -3 458 -8 539 -21z m-5600 -800 c308 -51 592 -168 820
-340 433 -325 715 -837 815 -1481 18 -116 22 -183 22 -395 0 -212 -4 -279 -22
-395 -143 -922 -664 -1572 -1424 -1775 -217 -57 -274 -63 -750 -67 l-438 -5 0
2242 0 2242 438 -5 c346 -3 458 -8 539 -21z m8081 -1112 c76 -25 140 -79 181
-154 33 -60 36 -71 36 -150 0 -77 -3 -91 -34 -148 -38 -70 -70 -100 -145 -140
-44 -22 -63 -26 -136 -26 -69 0 -94 4 -135 24 -104 51 -173 152 -183 267 -18
223 202 396 416 327z m-5600 -800 c76 -25 140 -79 181 -154 33 -60 36 -71 36
-150 0 -77 -3 -91 -34 -148 -38 -70 -70 -100 -145 -140 -44 -22 -63 -26 -136
-26 -69 0 -94 4 -135 24 -104 51 -173 152 -183 267 -18 223 202 396 416 327z"/>
<path d="M23760 16894 c-176 -23 -327 -66 -455 -132 -345 -178 -575 -514 -657
-958 -31 -173 -31 -535 0 -708 128 -698 618 -1110 1302 -1094 l125 2 205 -226
205 -227 229 0 c217 -1 228 0 214 17 -8 9 -120 134 -247 276 l-232 259 72 39
c403 219 629 588 680 1113 25 257 -6 564 -80 786 -66 196 -153 344 -282 483
-167 178 -369 291 -624 347 -88 19 -371 33 -455 23z m380 -329 c92 -24 235
-95 304 -153 236 -197 366 -538 366 -962 0 -513 -187 -896 -515 -1055 -115
-55 -193 -75 -330 -82 -249 -13 -448 56 -613 212 -93 88 -150 166 -208 289
-136 288 -163 743 -64 1105 27 97 97 245 154 325 58 82 177 192 256 239 70 41
192 83 280 97 80 13 294 4 370 -15z"/>
<path d="M900 9835 l0 -1095 85 0 85 0 0 1095 0 1095 -85 0 -85 0 0 -1095z"/>
<path d="M3450 9835 l0 -1095 85 0 85 0 2 382 3 383 265 -383 264 -382 114 0
114 0 -44 63 c-25 34 -156 223 -292 420 l-247 357 187 248 c103 136 230 302
281 370 l94 122 -113 -1 -113 0 -255 -337 -255 -337 -3 643 -2 642 -85 0 -85
0 0 -1095z"/>
<path d="M285 10336 c-97 -24 -173 -76 -247 -169 l-38 -49 0 -593 0 -593 39
-49 c79 -98 142 -143 236 -168 114 -29 249 -11 360 48 l60 32 3 122 3 122 -58
-38 c-190 -124 -375 -103 -483 55 -146 211 -146 727 0 938 67 99 161 144 275
133 76 -7 132 -28 208 -78 l58 -38 -3 122 -3 122 -61 32 c-113 60 -235 77
-349 49z"/>
<path d="M1697 10340 c-97 -25 -200 -108 -260 -210 -73 -125 -114 -302 -123
-530 -18 -443 101 -766 318 -866 55 -25 75 -29 158 -29 83 0 103 4 158 29 202
93 322 387 322 791 0 497 -173 807 -459 821 -42 2 -93 -1 -114 -6z m178 -229
c54 -24 101 -80 141 -166 100 -217 98 -638 -4 -853 -100 -211 -313 -230 -426
-38 -129 221 -127 740 4 946 16 25 42 58 58 74 58 54 154 71 227 37z"/>
<path d="M2845 10336 c-194 -47 -335 -235 -392 -523 -22 -111 -25 -431 -5
-543 43 -242 150 -434 287 -514 127 -75 312 -72 460 7 l60 32 3 122 3 122 -58
-38 c-190 -124 -375 -103 -483 55 -146 211 -146 727 0 938 67 99 161 144 275
133 76 -7 132 -28 208 -78 l58 -38 -3 122 -3 122 -61 32 c-113 60 -235 77
-349 49z"/>
<path d="M22680 5915 l0 -135 1000 0 1000 0 0 135 0 135 -1000 0 -1000 0 0
-135z"/>
<path d="M23760 5694 c-176 -23 -327 -66 -455 -132 -345 -178 -575 -514 -657
-958 -31 -173 -31 -535 0 -708 128 -698 618 -1110 1302 -1094 l125 2 205 -226
205 -227 229 0 c217 -1 228 0 214 17 -8 9 -120 134 -247 276 l-232 259 72 39
c403 219 629 588 680 1113 25 257 -6 564 -80 786 -66 196 -153 344 -282 483
-167 178 -369 291 -624 347 -88 19 -371 33 -455 23z m380 -329 c92 -24 235
-95 304 -153 236 -197 366 -538 366 -962 0 -513 -187 -896 -515 -1055 -115
-55 -193 -75 -330 -82 -249 -13 -448 56 -613 212 -93 88 -150 166 -208 289
-136 288 -163 743 -64 1105 27 97 97 245 154 325 58 82 177 192 256 239 70 41
192 83 280 97 80 13 294 4 370 -15z"/>
<path d="M1500 1850 l0 -1400 190 0 190 0 0 672 0 673 673 -673 672 -672 250
0 250 0 -743 743 c-408 408 -742 747 -741 752 0 6 293 285 650 620 357 336
666 627 686 648 l37 37 -240 0 -240 0 -625 -589 -624 -589 -3 589 -2 589 -190
0 -190 0 0 -1400z"/>
</g>
</svg>
