<?xml version="1.0" encoding="UTF-8"?>
<svg xmlns="http://www.w3.org/2000/svg" xmlns:xlink="http://www.w3.org/1999/xlink" width="3.975mm" height="4.340mm" viewBox="223.084244 -122.076767 3.975266 4.340019">
    <path transform="matrix(1,0,0,-1,141.121872,-220.261749)" style="stroke:#004754;stroke-width:0.05mm;fill:none" d="M85.185501,-101.915001C85.68869,-101.516464,85.96875,-100.899681,85.93763,-100.258537C85.906502,-99.617393,85.568031,-99.030632,85.028603,-98.682701"/>
    <path transform="matrix(1,0,0,-1,141.121872,-220.261749)" style="stroke:#004754;stroke-width:0.05mm;fill:none" d="M85.029999,-101.396004C85.590057,-100.814926,85.589966,-99.894875,85.0298,-99.313904"/>
    <path transform="matrix(1,0,0,-1,141.121872,-220.261749)" style="stroke:#004754;stroke-width:0.05mm;fill:none" d="M82.870201,-99.313904C82.310036,-99.894875,82.309944,-100.814926,82.870003,-101.396004"/>
    <path transform="matrix(1,0,0,-1,141.121872,-220.261749)" style="stroke:#004754;stroke-width:0.05mm;fill:none" d="M82.871399,-98.682701C82.33197,-99.030632,81.9935,-99.617393,81.962372,-100.258537C81.931252,-100.899681,82.211311,-101.516464,82.7145,-101.915001"/>
    <path transform="matrix(1,0,0,-1,141.121872,-220.261749)" style="stroke:#004754;stroke-width:0.05mm;fill:none" d="M85.029999,-101.915001L85.185997,-101.915001"/>
    <path transform="matrix(1,0,0,-1,141.121872,-220.261749)" style="stroke:#004754;stroke-width:0.05mm;fill:none" d="M82.713997,-101.915001L82.870003,-101.915001"/>
    <path transform="matrix(1,0,0,-1,0,0)" style="stroke:none;fill:#c08000;fill-rule:evenodd" d="M225.971863,117.736748L224.171875,117.736748L224.171875,119.536751L225.971863,119.536751L225.971863,117.736748z"/>
    <path transform="matrix(1,0,0,-1,0,0)" style="stroke:none;fill:#c08000;fill-rule:evenodd" d="M225.971863,121.176765C225.971863,121.67382,225.568924,122.076767,225.071869,122.076767C224.574814,122.076767,224.171875,121.67382,224.171875,121.176765C224.171875,120.67971,224.574814,120.276764,225.071869,120.276764C225.568924,120.276764,225.971863,120.67971,225.971863,121.176765z"/>
</svg>
