<?xml version="1.0" standalone="no"?>
<!DOCTYPE svg PUBLIC "-//W3C//DTD SVG 20010904//EN"
 "http://www.w3.org/TR/2001/REC-SVG-20010904/DTD/svg10.dtd">
<svg version="1.0" xmlns="http://www.w3.org/2000/svg"
 width="74.000000pt" height="154.000000pt" viewBox="0 0 74.000000 154.000000"
 preserveAspectRatio="xMidYMid meet">

<g transform="translate(0.000000,154.000000) scale(0.100000,-0.100000)"
fill="#000000" stroke="none">
<path d="M268 1527 c-53 -15 -107 -53 -138 -96 -40 -58 -50 -106 -50 -252 0
-90 -4 -139 -10 -139 -6 0 -22 -11 -35 -25 -23 -22 -25 -32 -25 -115 0 -83 2
-93 25 -115 22 -23 32 -25 115 -25 l90 0 0 -280 0 -280 40 0 40 0 0 280 0 280
55 0 55 0 0 -160 0 -160 40 0 40 0 0 160 0 160 84 0 c69 0 88 4 110 21 25 20
26 24 26 119 0 99 0 100 -30 122 l-30 22 0 131 c0 200 -33 276 -143 332 -62
31 -185 41 -259 20z m239 -103 c15 -11 38 -36 51 -54 20 -31 22 -44 22 -181
l0 -149 -211 0 -211 0 4 143 c4 150 12 179 60 224 38 35 68 43 165 40 75 -2
97 -6 120 -23z m123 -524 l0 -30 -255 0 -255 0 0 30 0 30 255 0 255 0 0 -30z"/>
<path d="M380 340 c0 -18 7 -20 85 -20 78 0 85 2 85 20 0 18 -7 20 -85 20 -78
0 -85 -2 -85 -20z"/>
<path d="M260 140 c0 -27 -3 -30 -30 -30 -23 0 -30 -4 -30 -20 0 -16 7 -20 30
-20 28 0 30 -3 30 -35 0 -28 4 -35 19 -35 15 0 21 8 23 33 3 28 7 32 36 35 24
2 32 8 32 23 0 15 -7 19 -35 19 -32 0 -35 2 -35 30 0 23 -4 30 -20 30 -16 0
-20 -7 -20 -30z"/>
</g>
</svg>
