<?xml version="1.0" encoding="UTF-8"?>
<svg xmlns="http://www.w3.org/2000/svg" xmlns:xlink="http://www.w3.org/1999/xlink" width="19.575mm" height="62.876mm" viewBox="126.801811 -251.666016 19.574684 62.876343">
    <path transform="matrix(1,0,0,-1,72.935875,-254.611969)" style="stroke:#000000;stroke-width:0.05mm;fill:none" d="M53.865936,-62.287437L58.22274,-62.287437L58.22274,-58.450264L64.586197,-62.124214L58.226112,-65.822289L58.226112,-62.291664"/>
    <path transform="matrix(1,0,0,-1,72.935875,-254.611969)" style="stroke:#000000;stroke-width:0.05mm;fill:none" d="M67.313843,-62.136276C67.314453,-62.583126,67.076408,-62.996296,66.689522,-63.219898C66.302635,-63.443501,65.825798,-63.443501,65.438919,-63.219898C65.052032,-62.996296,64.813988,-62.583126,64.81459,-62.136276C64.813988,-61.689423,65.052032,-61.276257,65.438911,-61.052654C65.825798,-60.829052,66.302635,-60.829052,66.689522,-61.052654C67.076408,-61.276257,67.314453,-61.689423,67.313843,-62.136276z"/>
    <path transform="matrix(1,0,0,-1,72.935875,-254.611969)" style="stroke:#000000;stroke-width:0.05mm;fill:none" d="M71.756966,-62.136269L67.545258,-62.136269"/>
    <path transform="matrix(1,0,0,-1,72.935875,-254.611969)" style="stroke:#000000;stroke-width:0.05mm;fill:none" d="M53.933487,-49.352043L57.926136,-49.352043"/>
    <path transform="matrix(1,0,0,-1,72.935875,-254.611969)" style="stroke:#000000;stroke-width:0.05mm;fill:none" d="M53.933487,-52.791527L57.92614,-52.791527"/>
    <path transform="matrix(1,0,0,-1,72.935875,-254.611969)" style="stroke:#000000;stroke-width:0.05mm;fill:none" d="M57.075245,-47.693897C59.802464,-51.119286,57.075245,-54.479218,57.075245,-54.479218"/>
    <path transform="matrix(1,0,0,-1,72.935875,-254.611969)" style="stroke:#000000;stroke-width:0.05mm;fill:none" d="M58.493397,-47.410267C66.610657,-47.410267,67.504128,-51.075645,67.504128,-51.075645L71.802223,-51.075645L67.482315,-51.075645C66.320381,-55.412045,58.471581,-54.719212,58.471581,-54.719212C62.224236,-51.053829,58.493397,-47.410267,58.493397,-47.410267z"/>
    <path transform="matrix(1,0,0,-1,72.935875,-254.611969)" style="stroke:#000000;stroke-width:0.05mm;fill:none" d="M56.905899,-36.521484C65.023163,-36.521484,65.916634,-40.186874,65.916634,-40.186874L65.894814,-40.186874C64.73288,-44.52327,56.884079,-43.830429,56.884079,-43.830429C60.636734,-40.165047,56.905899,-36.521484,56.905899,-36.521484z"/>
    <path transform="matrix(1,0,0,-1,72.935875,-254.611969)" style="stroke:#000000;stroke-width:0.05mm;fill:none" d="M54.093925,-38.628326L58.086578,-38.628326"/>
    <path transform="matrix(1,0,0,-1,72.935875,-254.611969)" style="stroke:#000000;stroke-width:0.05mm;fill:none" d="M54.093925,-42.067795L58.086578,-42.067795"/>
    <path transform="matrix(1,0,0,-1,72.935875,-254.611969)" style="stroke:#000000;stroke-width:0.05mm;fill:none" d="M67.623795,-40.231247C67.624191,-40.52169,67.469467,-40.790241,67.217995,-40.935577C66.96653,-41.080914,66.656601,-41.080914,66.405136,-40.935577C66.153664,-40.790241,65.99894,-40.52169,65.999336,-40.231247C65.99894,-39.940804,66.153664,-39.672249,66.405128,-39.526913C66.656601,-39.381577,66.96653,-39.381577,67.217995,-39.526913C67.469467,-39.672249,67.624191,-39.940804,67.623795,-40.231247z"/>
    <path transform="matrix(1,0,0,-1,72.935875,-254.611969)" style="stroke:#000000;stroke-width:0.05mm;fill:none" d="M71.975143,-40.231247L67.763435,-40.231247"/>
    <path transform="matrix(1,0,0,-1,72.935875,-254.611969)" style="stroke:#000000;stroke-width:0.05mm;fill:none" d="M57.009338,-25.390015C65.126602,-25.390015,66.020073,-29.055397,66.020073,-29.055397L70.318169,-29.055397L65.998253,-29.055397C64.836319,-33.391792,56.987526,-32.698959,56.987526,-32.698959C60.740181,-29.033569,57.009338,-25.390015,57.009338,-25.390015z"/>
    <path transform="matrix(1,0,0,-1,72.935875,-254.611969)" style="stroke:#000000;stroke-width:0.05mm;fill:none" d="M54.174751,-27.53199L58.167404,-27.53199"/>
    <path transform="matrix(1,0,0,-1,72.935875,-254.611969)" style="stroke:#000000;stroke-width:0.05mm;fill:none" d="M54.174751,-30.971474L58.167404,-30.971474"/>
    <path transform="matrix(1,0,0,-1,72.935875,-254.611969)" style="stroke:#000000;stroke-width:0.05mm;fill:none" d="M69.089264,-17.735516C69.089661,-18.025959,68.934937,-18.29451,68.683464,-18.439846C68.431999,-18.585182,68.12207,-18.585182,67.870605,-18.439846C67.619133,-18.29451,67.464409,-18.025959,67.464806,-17.735516C67.464409,-17.445072,67.619133,-17.176517,67.870598,-17.031181C68.12207,-16.885845,68.431999,-16.885845,68.683464,-17.031181C68.934937,-17.176517,69.089661,-17.445072,69.089264,-17.735516z"/>
    <path transform="matrix(1,0,0,-1,72.935875,-254.611969)" style="stroke:#000000;stroke-width:0.05mm;fill:none" d="M73.440613,-17.735512L69.228905,-17.735512"/>
    <path transform="matrix(1,0,0,-1,72.935875,-254.611969)" style="stroke:#000000;stroke-width:0.05mm;fill:none" d="M58.205425,-14.289804L58.205425,-21.422598C70.414261,-22.062721,70.698593,-13.603959,58.205425,-14.289804z"/>
    <path transform="matrix(1,0,0,-1,72.935875,-254.611969)" style="stroke:#000000;stroke-width:0.05mm;fill:none" d="M54.083305,-15.981781L58.075958,-15.981781"/>
    <path transform="matrix(1,0,0,-1,72.935875,-254.611969)" style="stroke:#000000;stroke-width:0.05mm;fill:none" d="M54.083305,-19.421249L58.075958,-19.421249"/>
    <path transform="matrix(1,0,0,-1,72.935875,-254.611969)" style="stroke:#000000;stroke-width:0.05mm;fill:none" d="M71.958794,-6.537109L67.747093,-6.537109"/>
    <path transform="matrix(1,0,0,-1,72.935875,-254.611969)" style="stroke:#000000;stroke-width:0.05mm;fill:none" d="M58.312805,-2.984024L58.312805,-10.116821C70.521645,-10.756943,70.805977,-2.29818,58.312805,-2.984024z"/>
    <path transform="matrix(1,0,0,-1,72.935875,-254.611969)" style="stroke:#000000;stroke-width:0.05mm;fill:none" d="M54.083305,-4.869278L58.075958,-4.869278"/>
    <path transform="matrix(1,0,0,-1,72.935875,-254.611969)" style="stroke:#000000;stroke-width:0.05mm;fill:none" d="M54.083305,-8.308746L58.075958,-8.308746"/>
</svg>
