<svg version="1.1" xmlns="http://www.w3.org/2000/svg" xmlns:xlink="http://www.w3.org/1999/xlink" width="1360" height="61" viewBox="0,0,1360,61"><g id="1 cm. Tick Group" fill="none" fill-rule="nonzero" stroke="none" stroke-width="none" stroke-linecap="butt" stroke-linejoin="miter" stroke-miterlimit="10" stroke-dasharray="" stroke-dashoffset="0" font-family="none" font-weight="none" font-size="none" text-anchor="none" style="mix-blend-mode: normal"><path d="M0,0v11.33858" id="1 cm. Tick no. 0" fill="none" stroke="#000000" stroke-width="1"/><text x="4" y="12.33858" id="1 cm. label no. 0" fill="#000000" stroke="none" stroke-width="1" font-family="monospace" font-weight="bold" font-size="7" text-anchor="start">0</text><path d="M37.79528,0v11.33858" id="1 cm. Tick no. 1" fill="none" stroke="#000000" stroke-width="1"/><text x="41.79528" y="12.33858" id="1 cm. label no. 1" fill="#000000" stroke="none" stroke-width="1" font-family="monospace" font-weight="bold" font-size="7" text-anchor="start">1</text><path d="M75.59055,0v11.33858" id="1 cm. Tick no. 2" fill="none" stroke="#000000" stroke-width="1"/><text x="79.59055" y="12.33858" id="1 cm. label no. 2" fill="#000000" stroke="none" stroke-width="1" font-family="monospace" font-weight="bold" font-size="7" text-anchor="start">2</text><path d="M113.38583,0v11.33858" id="1 cm. Tick no. 3" fill="none" stroke="#000000" stroke-width="1"/><text x="117.38583" y="12.33858" id="1 cm. label no. 3" fill="#000000" stroke="none" stroke-width="1" font-family="monospace" font-weight="bold" font-size="7" text-anchor="start">3</text><path d="M151.1811,0v11.33858" id="1 cm. Tick no. 4" fill="none" stroke="#000000" stroke-width="1"/><text x="155.1811" y="12.33858" id="1 cm. label no. 4" fill="#000000" stroke="none" stroke-width="1" font-family="monospace" font-weight="bold" font-size="7" text-anchor="start">4</text><path d="M188.97638,0v11.33858" id="1 cm. Tick no. 5" fill="none" stroke="#000000" stroke-width="1"/><text x="192.97638" y="12.33858" id="1 cm. label no. 5" fill="#000000" stroke="none" stroke-width="1" font-family="monospace" font-weight="bold" font-size="7" text-anchor="start">5</text><path d="M226.77165,0v11.33858" id="1 cm. Tick no. 6" fill="none" stroke="#000000" stroke-width="1"/><text x="230.77165" y="12.33858" id="1 cm. label no. 6" fill="#000000" stroke="none" stroke-width="1" font-family="monospace" font-weight="bold" font-size="7" text-anchor="start">6</text><path d="M264.56693,0v11.33858" id="1 cm. Tick no. 7" fill="none" stroke="#000000" stroke-width="1"/><text x="268.56693" y="12.33858" id="1 cm. label no. 7" fill="#000000" stroke="none" stroke-width="1" font-family="monospace" font-weight="bold" font-size="7" text-anchor="start">7</text><path d="M302.3622,0v11.33858" id="1 cm. Tick no. 8" fill="none" stroke="#000000" stroke-width="1"/><text x="306.3622" y="12.33858" id="1 cm. label no. 8" fill="#000000" stroke="none" stroke-width="1" font-family="monospace" font-weight="bold" font-size="7" text-anchor="start">8</text><path d="M340.15748,0v11.33858" id="1 cm. Tick no. 9" fill="none" stroke="#000000" stroke-width="1"/><text x="344.15748" y="12.33858" id="1 cm. label no. 9" fill="#000000" stroke="none" stroke-width="1" font-family="monospace" font-weight="bold" font-size="7" text-anchor="start">9</text><path d="M377.95276,0v11.33858" id="1 cm. Tick no. 10" fill="none" stroke="#000000" stroke-width="1"/><text x="381.95276" y="12.33858" id="1 cm. label no. 10" fill="#000000" stroke="none" stroke-width="1" font-family="monospace" font-weight="bold" font-size="7" text-anchor="start">10</text><path d="M415.74803,0v11.33858" id="1 cm. Tick no. 11" fill="none" stroke="#000000" stroke-width="1"/><text x="419.74803" y="12.33858" id="1 cm. label no. 11" fill="#000000" stroke="none" stroke-width="1" font-family="monospace" font-weight="bold" font-size="7" text-anchor="start">11</text><path d="M453.54331,0v11.33858" id="1 cm. Tick no. 12" fill="none" stroke="#000000" stroke-width="1"/><text x="457.54331" y="12.33858" id="1 cm. label no. 12" fill="#000000" stroke="none" stroke-width="1" font-family="monospace" font-weight="bold" font-size="7" text-anchor="start">12</text><path d="M491.33858,0v11.33858" id="1 cm. Tick no. 13" fill="none" stroke="#000000" stroke-width="1"/><text x="495.33858" y="12.33858" id="1 cm. label no. 13" fill="#000000" stroke="none" stroke-width="1" font-family="monospace" font-weight="bold" font-size="7" text-anchor="start">13</text><path d="M529.13386,0v11.33858" id="1 cm. Tick no. 14" fill="none" stroke="#000000" stroke-width="1"/><text x="533.13386" y="12.33858" id="1 cm. label no. 14" fill="#000000" stroke="none" stroke-width="1" font-family="monospace" font-weight="bold" font-size="7" text-anchor="start">14</text><path d="M566.92913,0v11.33858" id="1 cm. Tick no. 15" fill="none" stroke="#000000" stroke-width="1"/><text x="570.92913" y="12.33858" id="1 cm. label no. 15" fill="#000000" stroke="none" stroke-width="1" font-family="monospace" font-weight="bold" font-size="7" text-anchor="start">15</text><path d="M604.72441,0v11.33858" id="1 cm. Tick no. 16" fill="none" stroke="#000000" stroke-width="1"/><text x="608.72441" y="12.33858" id="1 cm. label no. 16" fill="#000000" stroke="none" stroke-width="1" font-family="monospace" font-weight="bold" font-size="7" text-anchor="start">16</text><path d="M642.51969,0v11.33858" id="1 cm. Tick no. 17" fill="none" stroke="#000000" stroke-width="1"/><text x="646.51969" y="12.33858" id="1 cm. label no. 17" fill="#000000" stroke="none" stroke-width="1" font-family="monospace" font-weight="bold" font-size="7" text-anchor="start">17</text><path d="M680.31496,0v11.33858" id="1 cm. Tick no. 18" fill="none" stroke="#000000" stroke-width="1"/><text x="684.31496" y="12.33858" id="1 cm. label no. 18" fill="#000000" stroke="none" stroke-width="1" font-family="monospace" font-weight="bold" font-size="7" text-anchor="start">18</text><path d="M718.11024,0v11.33858" id="1 cm. Tick no. 19" fill="none" stroke="#000000" stroke-width="1"/><text x="722.11024" y="12.33858" id="1 cm. label no. 19" fill="#000000" stroke="none" stroke-width="1" font-family="monospace" font-weight="bold" font-size="7" text-anchor="start">19</text><path d="M755.90551,0v11.33858" id="1 cm. Tick no. 20" fill="none" stroke="#000000" stroke-width="1"/><text x="759.90551" y="12.33858" id="1 cm. label no. 20" fill="#000000" stroke="none" stroke-width="1" font-family="monospace" font-weight="bold" font-size="7" text-anchor="start">20</text><path d="M793.70079,0v11.33858" id="1 cm. Tick no. 21" fill="none" stroke="#000000" stroke-width="1"/><text x="797.70079" y="12.33858" id="1 cm. label no. 21" fill="#000000" stroke="none" stroke-width="1" font-family="monospace" font-weight="bold" font-size="7" text-anchor="start">21</text><path d="M831.49606,0v11.33858" id="1 cm. Tick no. 22" fill="none" stroke="#000000" stroke-width="1"/><text x="835.49606" y="12.33858" id="1 cm. label no. 22" fill="#000000" stroke="none" stroke-width="1" font-family="monospace" font-weight="bold" font-size="7" text-anchor="start">22</text><path d="M869.29134,0v11.33858" id="1 cm. Tick no. 23" fill="none" stroke="#000000" stroke-width="1"/><text x="873.29134" y="12.33858" id="1 cm. label no. 23" fill="#000000" stroke="none" stroke-width="1" font-family="monospace" font-weight="bold" font-size="7" text-anchor="start">23</text><path d="M907.08661,0v11.33858" id="1 cm. Tick no. 24" fill="none" stroke="#000000" stroke-width="1"/><text x="911.08661" y="12.33858" id="1 cm. label no. 24" fill="#000000" stroke="none" stroke-width="1" font-family="monospace" font-weight="bold" font-size="7" text-anchor="start">24</text><path d="M944.88189,0v11.33858" id="1 cm. Tick no. 25" fill="none" stroke="#000000" stroke-width="1"/><text x="948.88189" y="12.33858" id="1 cm. label no. 25" fill="#000000" stroke="none" stroke-width="1" font-family="monospace" font-weight="bold" font-size="7" text-anchor="start">25</text><path d="M982.67717,0v11.33858" id="1 cm. Tick no. 26" fill="none" stroke="#000000" stroke-width="1"/><text x="986.67717" y="12.33858" id="1 cm. label no. 26" fill="#000000" stroke="none" stroke-width="1" font-family="monospace" font-weight="bold" font-size="7" text-anchor="start">26</text><path d="M1020.47244,0v11.33858" id="1 cm. Tick no. 27" fill="none" stroke="#000000" stroke-width="1"/><text x="1024.47244" y="12.33858" id="1 cm. label no. 27" fill="#000000" stroke="none" stroke-width="1" font-family="monospace" font-weight="bold" font-size="7" text-anchor="start">27</text><path d="M1058.26772,0v11.33858" id="1 cm. Tick no. 28" fill="none" stroke="#000000" stroke-width="1"/><text x="1062.26772" y="12.33858" id="1 cm. label no. 28" fill="#000000" stroke="none" stroke-width="1" font-family="monospace" font-weight="bold" font-size="7" text-anchor="start">28</text><path d="M1096.06299,0v11.33858" id="1 cm. Tick no. 29" fill="none" stroke="#000000" stroke-width="1"/><text x="1100.06299" y="12.33858" id="1 cm. label no. 29" fill="#000000" stroke="none" stroke-width="1" font-family="monospace" font-weight="bold" font-size="7" text-anchor="start">29</text><path d="M1133.85827,0v11.33858" id="1 cm. Tick no. 30" fill="none" stroke="#000000" stroke-width="1"/><text x="1137.85827" y="12.33858" id="1 cm. label no. 30" fill="#000000" stroke="none" stroke-width="1" font-family="monospace" font-weight="bold" font-size="7" text-anchor="start">30</text><path d="M1171.65354,0v11.33858" id="1 cm. Tick no. 31" fill="none" stroke="#000000" stroke-width="1"/><text x="1175.65354" y="12.33858" id="1 cm. label no. 31" fill="#000000" stroke="none" stroke-width="1" font-family="monospace" font-weight="bold" font-size="7" text-anchor="start">31</text><path d="M1209.44882,0v11.33858" id="1 cm. Tick no. 32" fill="none" stroke="#000000" stroke-width="1"/><text x="1213.44882" y="12.33858" id="1 cm. label no. 32" fill="#000000" stroke="none" stroke-width="1" font-family="monospace" font-weight="bold" font-size="7" text-anchor="start">32</text><path d="M1247.24409,0v11.33858" id="1 cm. Tick no. 33" fill="none" stroke="#000000" stroke-width="1"/><text x="1251.24409" y="12.33858" id="1 cm. label no. 33" fill="#000000" stroke="none" stroke-width="1" font-family="monospace" font-weight="bold" font-size="7" text-anchor="start">33</text><path d="M1285.03937,0v11.33858" id="1 cm. Tick no. 34" fill="none" stroke="#000000" stroke-width="1"/><text x="1289.03937" y="12.33858" id="1 cm. label no. 34" fill="#000000" stroke="none" stroke-width="1" font-family="monospace" font-weight="bold" font-size="7" text-anchor="start">34</text><path d="M1322.83465,0v11.33858" id="1 cm. Tick no. 35" fill="none" stroke="#000000" stroke-width="1"/><text x="1326.83465" y="12.33858" id="1 cm. label no. 35" fill="#000000" stroke="none" stroke-width="1" font-family="monospace" font-weight="bold" font-size="7" text-anchor="start">35</text><path d="M1360.62992,0v11.33858" id="1 cm. Tick no. 36" fill="none" stroke="#000000" stroke-width="1"/><text x="1356.62992" y="12.33858" id="1 cm. label no. 36" fill="#000000" stroke="none" stroke-width="1" font-family="monospace" font-weight="bold" font-size="7" text-anchor="end">36</text></g><g id="1/10th cm. Tick Group" fill="none" fill-rule="nonzero" stroke="#000000" stroke-width="1" stroke-linecap="butt" stroke-linejoin="miter" stroke-miterlimit="10" stroke-dasharray="" stroke-dashoffset="0" font-family="none" font-weight="none" font-size="none" text-anchor="none" style="mix-blend-mode: normal"><path d="M3.77953,0v5.66929" id="1/10th cm. Tick no. 1"/><path d="M7.55906,0v5.66929" id="1/10th cm. Tick no. 2"/><path d="M11.33858,0v5.66929" id="1/10th cm. Tick no. 3"/><path d="M15.11811,0v5.66929" id="1/10th cm. Tick no. 4"/><path d="M18.89764,0v5.66929" id="1/10th cm. Tick no. 5"/><path d="M22.67717,0v5.66929" id="1/10th cm. Tick no. 6"/><path d="M26.45669,0v5.66929" id="1/10th cm. Tick no. 7"/><path d="M30.23622,0v5.66929" id="1/10th cm. Tick no. 8"/><path d="M34.01575,0v5.66929" id="1/10th cm. Tick no. 9"/><path d="M41.5748,0v5.66929" id="1/10th cm. Tick no. 11"/><path d="M45.35433,0v5.66929" id="1/10th cm. Tick no. 12"/><path d="M49.13386,0v5.66929" id="1/10th cm. Tick no. 13"/><path d="M52.91339,0v5.66929" id="1/10th cm. Tick no. 14"/><path d="M56.69291,0v5.66929" id="1/10th cm. Tick no. 15"/><path d="M60.47244,0v5.66929" id="1/10th cm. Tick no. 16"/><path d="M64.25197,0v5.66929" id="1/10th cm. Tick no. 17"/><path d="M68.0315,0v5.66929" id="1/10th cm. Tick no. 18"/><path d="M71.81102,0v5.66929" id="1/10th cm. Tick no. 19"/><path d="M79.37008,0v5.66929" id="1/10th cm. Tick no. 21"/><path d="M83.14961,0v5.66929" id="1/10th cm. Tick no. 22"/><path d="M86.92913,0v5.66929" id="1/10th cm. Tick no. 23"/><path d="M90.70866,0v5.66929" id="1/10th cm. Tick no. 24"/><path d="M94.48819,0v5.66929" id="1/10th cm. Tick no. 25"/><path d="M98.26772,0v5.66929" id="1/10th cm. Tick no. 26"/><path d="M102.04724,0v5.66929" id="1/10th cm. Tick no. 27"/><path d="M105.82677,0v5.66929" id="1/10th cm. Tick no. 28"/><path d="M109.6063,0v5.66929" id="1/10th cm. Tick no. 29"/><path d="M117.16535,0v5.66929" id="1/10th cm. Tick no. 31"/><path d="M120.94488,0v5.66929" id="1/10th cm. Tick no. 32"/><path d="M124.72441,0v5.66929" id="1/10th cm. Tick no. 33"/><path d="M128.50394,0v5.66929" id="1/10th cm. Tick no. 34"/><path d="M132.28346,0v5.66929" id="1/10th cm. Tick no. 35"/><path d="M136.06299,0v5.66929" id="1/10th cm. Tick no. 36"/><path d="M139.84252,0v5.66929" id="1/10th cm. Tick no. 37"/><path d="M143.62205,0v5.66929" id="1/10th cm. Tick no. 38"/><path d="M147.40157,0v5.66929" id="1/10th cm. Tick no. 39"/><path d="M154.96063,0v5.66929" id="1/10th cm. Tick no. 41"/><path d="M158.74016,0v5.66929" id="1/10th cm. Tick no. 42"/><path d="M162.51969,0v5.66929" id="1/10th cm. Tick no. 43"/><path d="M166.29921,0v5.66929" id="1/10th cm. Tick no. 44"/><path d="M170.07874,0v5.66929" id="1/10th cm. Tick no. 45"/><path d="M173.85827,0v5.66929" id="1/10th cm. Tick no. 46"/><path d="M177.6378,0v5.66929" id="1/10th cm. Tick no. 47"/><path d="M181.41732,0v5.66929" id="1/10th cm. Tick no. 48"/><path d="M185.19685,0v5.66929" id="1/10th cm. Tick no. 49"/><path d="M192.75591,0v5.66929" id="1/10th cm. Tick no. 51"/><path d="M196.53543,0v5.66929" id="1/10th cm. Tick no. 52"/><path d="M200.31496,0v5.66929" id="1/10th cm. Tick no. 53"/><path d="M204.09449,0v5.66929" id="1/10th cm. Tick no. 54"/><path d="M207.87402,0v5.66929" id="1/10th cm. Tick no. 55"/><path d="M211.65354,0v5.66929" id="1/10th cm. Tick no. 56"/><path d="M215.43307,0v5.66929" id="1/10th cm. Tick no. 57"/><path d="M219.2126,0v5.66929" id="1/10th cm. Tick no. 58"/><path d="M222.99213,0v5.66929" id="1/10th cm. Tick no. 59"/><path d="M230.55118,0v5.66929" id="1/10th cm. Tick no. 61"/><path d="M234.33071,0v5.66929" id="1/10th cm. Tick no. 62"/><path d="M238.11024,0v5.66929" id="1/10th cm. Tick no. 63"/><path d="M241.88976,0v5.66929" id="1/10th cm. Tick no. 64"/><path d="M245.66929,0v5.66929" id="1/10th cm. Tick no. 65"/><path d="M249.44882,0v5.66929" id="1/10th cm. Tick no. 66"/><path d="M253.22835,0v5.66929" id="1/10th cm. Tick no. 67"/><path d="M257.00787,0v5.66929" id="1/10th cm. Tick no. 68"/><path d="M260.7874,0v5.66929" id="1/10th cm. Tick no. 69"/><path d="M268.34646,0v5.66929" id="1/10th cm. Tick no. 71"/><path d="M272.12598,0v5.66929" id="1/10th cm. Tick no. 72"/><path d="M275.90551,0v5.66929" id="1/10th cm. Tick no. 73"/><path d="M279.68504,0v5.66929" id="1/10th cm. Tick no. 74"/><path d="M283.46457,0v5.66929" id="1/10th cm. Tick no. 75"/><path d="M287.24409,0v5.66929" id="1/10th cm. Tick no. 76"/><path d="M291.02362,0v5.66929" id="1/10th cm. Tick no. 77"/><path d="M294.80315,0v5.66929" id="1/10th cm. Tick no. 78"/><path d="M298.58268,0v5.66929" id="1/10th cm. Tick no. 79"/><path d="M306.14173,0v5.66929" id="1/10th cm. Tick no. 81"/><path d="M309.92126,0v5.66929" id="1/10th cm. Tick no. 82"/><path d="M313.70079,0v5.66929" id="1/10th cm. Tick no. 83"/><path d="M317.48031,0v5.66929" id="1/10th cm. Tick no. 84"/><path d="M321.25984,0v5.66929" id="1/10th cm. Tick no. 85"/><path d="M325.03937,0v5.66929" id="1/10th cm. Tick no. 86"/><path d="M328.8189,0v5.66929" id="1/10th cm. Tick no. 87"/><path d="M332.59843,0v5.66929" id="1/10th cm. Tick no. 88"/><path d="M336.37795,0v5.66929" id="1/10th cm. Tick no. 89"/><path d="M343.93701,0v5.66929" id="1/10th cm. Tick no. 91"/><path d="M347.71654,0v5.66929" id="1/10th cm. Tick no. 92"/><path d="M351.49606,0v5.66929" id="1/10th cm. Tick no. 93"/><path d="M355.27559,0v5.66929" id="1/10th cm. Tick no. 94"/><path d="M359.05512,0v5.66929" id="1/10th cm. Tick no. 95"/><path d="M362.83465,0v5.66929" id="1/10th cm. Tick no. 96"/><path d="M366.61417,0v5.66929" id="1/10th cm. Tick no. 97"/><path d="M370.3937,0v5.66929" id="1/10th cm. Tick no. 98"/><path d="M374.17323,0v5.66929" id="1/10th cm. Tick no. 99"/><path d="M381.73228,0v5.66929" id="1/10th cm. Tick no. 101"/><path d="M385.51181,0v5.66929" id="1/10th cm. Tick no. 102"/><path d="M389.29134,0v5.66929" id="1/10th cm. Tick no. 103"/><path d="M393.07087,0v5.66929" id="1/10th cm. Tick no. 104"/><path d="M396.85039,0v5.66929" id="1/10th cm. Tick no. 105"/><path d="M400.62992,0v5.66929" id="1/10th cm. Tick no. 106"/><path d="M404.40945,0v5.66929" id="1/10th cm. Tick no. 107"/><path d="M408.18898,0v5.66929" id="1/10th cm. Tick no. 108"/><path d="M411.9685,0v5.66929" id="1/10th cm. Tick no. 109"/><path d="M419.52756,0v5.66929" id="1/10th cm. Tick no. 111"/><path d="M423.30709,0v5.66929" id="1/10th cm. Tick no. 112"/><path d="M427.08661,0v5.66929" id="1/10th cm. Tick no. 113"/><path d="M430.86614,0v5.66929" id="1/10th cm. Tick no. 114"/><path d="M434.64567,0v5.66929" id="1/10th cm. Tick no. 115"/><path d="M438.4252,0v5.66929" id="1/10th cm. Tick no. 116"/><path d="M442.20472,0v5.66929" id="1/10th cm. Tick no. 117"/><path d="M445.98425,0v5.66929" id="1/10th cm. Tick no. 118"/><path d="M449.76378,0v5.66929" id="1/10th cm. Tick no. 119"/><path d="M457.32283,0v5.66929" id="1/10th cm. Tick no. 121"/><path d="M461.10236,0v5.66929" id="1/10th cm. Tick no. 122"/><path d="M464.88189,0v5.66929" id="1/10th cm. Tick no. 123"/><path d="M468.66142,0v5.66929" id="1/10th cm. Tick no. 124"/><path d="M472.44094,0v5.66929" id="1/10th cm. Tick no. 125"/><path d="M476.22047,0v5.66929" id="1/10th cm. Tick no. 126"/><path d="M480,0v5.66929" id="1/10th cm. Tick no. 127"/><path d="M483.77953,0v5.66929" id="1/10th cm. Tick no. 128"/><path d="M487.55906,0v5.66929" id="1/10th cm. Tick no. 129"/><path d="M495.11811,0v5.66929" id="1/10th cm. Tick no. 131"/><path d="M498.89764,0v5.66929" id="1/10th cm. Tick no. 132"/><path d="M502.67717,0v5.66929" id="1/10th cm. Tick no. 133"/><path d="M506.45669,0v5.66929" id="1/10th cm. Tick no. 134"/><path d="M510.23622,0v5.66929" id="1/10th cm. Tick no. 135"/><path d="M514.01575,0v5.66929" id="1/10th cm. Tick no. 136"/><path d="M517.79528,0v5.66929" id="1/10th cm. Tick no. 137"/><path d="M521.5748,0v5.66929" id="1/10th cm. Tick no. 138"/><path d="M525.35433,0v5.66929" id="1/10th cm. Tick no. 139"/><path d="M532.91339,0v5.66929" id="1/10th cm. Tick no. 141"/><path d="M536.69291,0v5.66929" id="1/10th cm. Tick no. 142"/><path d="M540.47244,0v5.66929" id="1/10th cm. Tick no. 143"/><path d="M544.25197,0v5.66929" id="1/10th cm. Tick no. 144"/><path d="M548.0315,0v5.66929" id="1/10th cm. Tick no. 145"/><path d="M551.81102,0v5.66929" id="1/10th cm. Tick no. 146"/><path d="M555.59055,0v5.66929" id="1/10th cm. Tick no. 147"/><path d="M559.37008,0v5.66929" id="1/10th cm. Tick no. 148"/><path d="M563.14961,0v5.66929" id="1/10th cm. Tick no. 149"/><path d="M570.70866,0v5.66929" id="1/10th cm. Tick no. 151"/><path d="M574.48819,0v5.66929" id="1/10th cm. Tick no. 152"/><path d="M578.26772,0v5.66929" id="1/10th cm. Tick no. 153"/><path d="M582.04724,0v5.66929" id="1/10th cm. Tick no. 154"/><path d="M585.82677,0v5.66929" id="1/10th cm. Tick no. 155"/><path d="M589.6063,0v5.66929" id="1/10th cm. Tick no. 156"/><path d="M593.38583,0v5.66929" id="1/10th cm. Tick no. 157"/><path d="M597.16535,0v5.66929" id="1/10th cm. Tick no. 158"/><path d="M600.94488,0v5.66929" id="1/10th cm. Tick no. 159"/><path d="M608.50394,0v5.66929" id="1/10th cm. Tick no. 161"/><path d="M612.28346,0v5.66929" id="1/10th cm. Tick no. 162"/><path d="M616.06299,0v5.66929" id="1/10th cm. Tick no. 163"/><path d="M619.84252,0v5.66929" id="1/10th cm. Tick no. 164"/><path d="M623.62205,0v5.66929" id="1/10th cm. Tick no. 165"/><path d="M627.40157,0v5.66929" id="1/10th cm. Tick no. 166"/><path d="M631.1811,0v5.66929" id="1/10th cm. Tick no. 167"/><path d="M634.96063,0v5.66929" id="1/10th cm. Tick no. 168"/><path d="M638.74016,0v5.66929" id="1/10th cm. Tick no. 169"/><path d="M646.29921,0v5.66929" id="1/10th cm. Tick no. 171"/><path d="M650.07874,0v5.66929" id="1/10th cm. Tick no. 172"/><path d="M653.85827,0v5.66929" id="1/10th cm. Tick no. 173"/><path d="M657.6378,0v5.66929" id="1/10th cm. Tick no. 174"/><path d="M661.41732,0v5.66929" id="1/10th cm. Tick no. 175"/><path d="M665.19685,0v5.66929" id="1/10th cm. Tick no. 176"/><path d="M668.97638,0v5.66929" id="1/10th cm. Tick no. 177"/><path d="M672.75591,0v5.66929" id="1/10th cm. Tick no. 178"/><path d="M676.53543,0v5.66929" id="1/10th cm. Tick no. 179"/><path d="M684.09449,0v5.66929" id="1/10th cm. Tick no. 181"/><path d="M687.87402,0v5.66929" id="1/10th cm. Tick no. 182"/><path d="M691.65354,0v5.66929" id="1/10th cm. Tick no. 183"/><path d="M695.43307,0v5.66929" id="1/10th cm. Tick no. 184"/><path d="M699.2126,0v5.66929" id="1/10th cm. Tick no. 185"/><path d="M702.99213,0v5.66929" id="1/10th cm. Tick no. 186"/><path d="M706.77165,0v5.66929" id="1/10th cm. Tick no. 187"/><path d="M710.55118,0v5.66929" id="1/10th cm. Tick no. 188"/><path d="M714.33071,0v5.66929" id="1/10th cm. Tick no. 189"/><path d="M721.88976,0v5.66929" id="1/10th cm. Tick no. 191"/><path d="M725.66929,0v5.66929" id="1/10th cm. Tick no. 192"/><path d="M729.44882,0v5.66929" id="1/10th cm. Tick no. 193"/><path d="M733.22835,0v5.66929" id="1/10th cm. Tick no. 194"/><path d="M737.00787,0v5.66929" id="1/10th cm. Tick no. 195"/><path d="M740.7874,0v5.66929" id="1/10th cm. Tick no. 196"/><path d="M744.56693,0v5.66929" id="1/10th cm. Tick no. 197"/><path d="M748.34646,0v5.66929" id="1/10th cm. Tick no. 198"/><path d="M752.12598,0v5.66929" id="1/10th cm. Tick no. 199"/><path d="M759.68504,0v5.66929" id="1/10th cm. Tick no. 201"/><path d="M763.46457,0v5.66929" id="1/10th cm. Tick no. 202"/><path d="M767.24409,0v5.66929" id="1/10th cm. Tick no. 203"/><path d="M771.02362,0v5.66929" id="1/10th cm. Tick no. 204"/><path d="M774.80315,0v5.66929" id="1/10th cm. Tick no. 205"/><path d="M778.58268,0v5.66929" id="1/10th cm. Tick no. 206"/><path d="M782.3622,0v5.66929" id="1/10th cm. Tick no. 207"/><path d="M786.14173,0v5.66929" id="1/10th cm. Tick no. 208"/><path d="M789.92126,0v5.66929" id="1/10th cm. Tick no. 209"/><path d="M797.48031,0v5.66929" id="1/10th cm. Tick no. 211"/><path d="M801.25984,0v5.66929" id="1/10th cm. Tick no. 212"/><path d="M805.03937,0v5.66929" id="1/10th cm. Tick no. 213"/><path d="M808.8189,0v5.66929" id="1/10th cm. Tick no. 214"/><path d="M812.59843,0v5.66929" id="1/10th cm. Tick no. 215"/><path d="M816.37795,0v5.66929" id="1/10th cm. Tick no. 216"/><path d="M820.15748,0v5.66929" id="1/10th cm. Tick no. 217"/><path d="M823.93701,0v5.66929" id="1/10th cm. Tick no. 218"/><path d="M827.71654,0v5.66929" id="1/10th cm. Tick no. 219"/><path d="M835.27559,0v5.66929" id="1/10th cm. Tick no. 221"/><path d="M839.05512,0v5.66929" id="1/10th cm. Tick no. 222"/><path d="M842.83465,0v5.66929" id="1/10th cm. Tick no. 223"/><path d="M846.61417,0v5.66929" id="1/10th cm. Tick no. 224"/><path d="M850.3937,0v5.66929" id="1/10th cm. Tick no. 225"/><path d="M854.17323,0v5.66929" id="1/10th cm. Tick no. 226"/><path d="M857.95276,0v5.66929" id="1/10th cm. Tick no. 227"/><path d="M861.73228,0v5.66929" id="1/10th cm. Tick no. 228"/><path d="M865.51181,0v5.66929" id="1/10th cm. Tick no. 229"/><path d="M873.07087,0v5.66929" id="1/10th cm. Tick no. 231"/><path d="M876.85039,0v5.66929" id="1/10th cm. Tick no. 232"/><path d="M880.62992,0v5.66929" id="1/10th cm. Tick no. 233"/><path d="M884.40945,0v5.66929" id="1/10th cm. Tick no. 234"/><path d="M888.18898,0v5.66929" id="1/10th cm. Tick no. 235"/><path d="M891.9685,0v5.66929" id="1/10th cm. Tick no. 236"/><path d="M895.74803,0v5.66929" id="1/10th cm. Tick no. 237"/><path d="M899.52756,0v5.66929" id="1/10th cm. Tick no. 238"/><path d="M903.30709,0v5.66929" id="1/10th cm. Tick no. 239"/><path d="M910.86614,0v5.66929" id="1/10th cm. Tick no. 241"/><path d="M914.64567,0v5.66929" id="1/10th cm. Tick no. 242"/><path d="M918.4252,0v5.66929" id="1/10th cm. Tick no. 243"/><path d="M922.20472,0v5.66929" id="1/10th cm. Tick no. 244"/><path d="M925.98425,0v5.66929" id="1/10th cm. Tick no. 245"/><path d="M929.76378,0v5.66929" id="1/10th cm. Tick no. 246"/><path d="M933.54331,0v5.66929" id="1/10th cm. Tick no. 247"/><path d="M937.32283,0v5.66929" id="1/10th cm. Tick no. 248"/><path d="M941.10236,0v5.66929" id="1/10th cm. Tick no. 249"/><path d="M948.66142,0v5.66929" id="1/10th cm. Tick no. 251"/><path d="M952.44094,0v5.66929" id="1/10th cm. Tick no. 252"/><path d="M956.22047,0v5.66929" id="1/10th cm. Tick no. 253"/><path d="M960,0v5.66929" id="1/10th cm. Tick no. 254"/><path d="M963.77953,0v5.66929" id="1/10th cm. Tick no. 255"/><path d="M967.55906,0v5.66929" id="1/10th cm. Tick no. 256"/><path d="M971.33858,0v5.66929" id="1/10th cm. Tick no. 257"/><path d="M975.11811,0v5.66929" id="1/10th cm. Tick no. 258"/><path d="M978.89764,0v5.66929" id="1/10th cm. Tick no. 259"/><path d="M986.45669,0v5.66929" id="1/10th cm. Tick no. 261"/><path d="M990.23622,0v5.66929" id="1/10th cm. Tick no. 262"/><path d="M994.01575,0v5.66929" id="1/10th cm. Tick no. 263"/><path d="M997.79528,0v5.66929" id="1/10th cm. Tick no. 264"/><path d="M1001.5748,0v5.66929" id="1/10th cm. Tick no. 265"/><path d="M1005.35433,0v5.66929" id="1/10th cm. Tick no. 266"/><path d="M1009.13386,0v5.66929" id="1/10th cm. Tick no. 267"/><path d="M1012.91339,0v5.66929" id="1/10th cm. Tick no. 268"/><path d="M1016.69291,0v5.66929" id="1/10th cm. Tick no. 269"/><path d="M1024.25197,0v5.66929" id="1/10th cm. Tick no. 271"/><path d="M1028.0315,0v5.66929" id="1/10th cm. Tick no. 272"/><path d="M1031.81102,0v5.66929" id="1/10th cm. Tick no. 273"/><path d="M1035.59055,0v5.66929" id="1/10th cm. Tick no. 274"/><path d="M1039.37008,0v5.66929" id="1/10th cm. Tick no. 275"/><path d="M1043.14961,0v5.66929" id="1/10th cm. Tick no. 276"/><path d="M1046.92913,0v5.66929" id="1/10th cm. Tick no. 277"/><path d="M1050.70866,0v5.66929" id="1/10th cm. Tick no. 278"/><path d="M1054.48819,0v5.66929" id="1/10th cm. Tick no. 279"/><path d="M1062.04724,0v5.66929" id="1/10th cm. Tick no. 281"/><path d="M1065.82677,0v5.66929" id="1/10th cm. Tick no. 282"/><path d="M1069.6063,0v5.66929" id="1/10th cm. Tick no. 283"/><path d="M1073.38583,0v5.66929" id="1/10th cm. Tick no. 284"/><path d="M1077.16535,0v5.66929" id="1/10th cm. Tick no. 285"/><path d="M1080.94488,0v5.66929" id="1/10th cm. Tick no. 286"/><path d="M1084.72441,0v5.66929" id="1/10th cm. Tick no. 287"/><path d="M1088.50394,0v5.66929" id="1/10th cm. Tick no. 288"/><path d="M1092.28346,0v5.66929" id="1/10th cm. Tick no. 289"/><path d="M1099.84252,0v5.66929" id="1/10th cm. Tick no. 291"/><path d="M1103.62205,0v5.66929" id="1/10th cm. Tick no. 292"/><path d="M1107.40157,0v5.66929" id="1/10th cm. Tick no. 293"/><path d="M1111.1811,0v5.66929" id="1/10th cm. Tick no. 294"/><path d="M1114.96063,0v5.66929" id="1/10th cm. Tick no. 295"/><path d="M1118.74016,0v5.66929" id="1/10th cm. Tick no. 296"/><path d="M1122.51969,0v5.66929" id="1/10th cm. Tick no. 297"/><path d="M1126.29921,0v5.66929" id="1/10th cm. Tick no. 298"/><path d="M1130.07874,0v5.66929" id="1/10th cm. Tick no. 299"/><path d="M1137.6378,0v5.66929" id="1/10th cm. Tick no. 301"/><path d="M1141.41732,0v5.66929" id="1/10th cm. Tick no. 302"/><path d="M1145.19685,0v5.66929" id="1/10th cm. Tick no. 303"/><path d="M1148.97638,0v5.66929" id="1/10th cm. Tick no. 304"/><path d="M1152.75591,0v5.66929" id="1/10th cm. Tick no. 305"/><path d="M1156.53543,0v5.66929" id="1/10th cm. Tick no. 306"/><path d="M1160.31496,0v5.66929" id="1/10th cm. Tick no. 307"/><path d="M1164.09449,0v5.66929" id="1/10th cm. Tick no. 308"/><path d="M1167.87402,0v5.66929" id="1/10th cm. Tick no. 309"/><path d="M1175.43307,0v5.66929" id="1/10th cm. Tick no. 311"/><path d="M1179.2126,0v5.66929" id="1/10th cm. Tick no. 312"/><path d="M1182.99213,0v5.66929" id="1/10th cm. Tick no. 313"/><path d="M1186.77165,0v5.66929" id="1/10th cm. Tick no. 314"/><path d="M1190.55118,0v5.66929" id="1/10th cm. Tick no. 315"/><path d="M1194.33071,0v5.66929" id="1/10th cm. Tick no. 316"/><path d="M1198.11024,0v5.66929" id="1/10th cm. Tick no. 317"/><path d="M1201.88976,0v5.66929" id="1/10th cm. Tick no. 318"/><path d="M1205.66929,0v5.66929" id="1/10th cm. Tick no. 319"/><path d="M1213.22835,0v5.66929" id="1/10th cm. Tick no. 321"/><path d="M1217.00787,0v5.66929" id="1/10th cm. Tick no. 322"/><path d="M1220.7874,0v5.66929" id="1/10th cm. Tick no. 323"/><path d="M1224.56693,0v5.66929" id="1/10th cm. Tick no. 324"/><path d="M1228.34646,0v5.66929" id="1/10th cm. Tick no. 325"/><path d="M1232.12598,0v5.66929" id="1/10th cm. Tick no. 326"/><path d="M1235.90551,0v5.66929" id="1/10th cm. Tick no. 327"/><path d="M1239.68504,0v5.66929" id="1/10th cm. Tick no. 328"/><path d="M1243.46457,0v5.66929" id="1/10th cm. Tick no. 329"/><path d="M1251.02362,0v5.66929" id="1/10th cm. Tick no. 331"/><path d="M1254.80315,0v5.66929" id="1/10th cm. Tick no. 332"/><path d="M1258.58268,0v5.66929" id="1/10th cm. Tick no. 333"/><path d="M1262.3622,0v5.66929" id="1/10th cm. Tick no. 334"/><path d="M1266.14173,0v5.66929" id="1/10th cm. Tick no. 335"/><path d="M1269.92126,0v5.66929" id="1/10th cm. Tick no. 336"/><path d="M1273.70079,0v5.66929" id="1/10th cm. Tick no. 337"/><path d="M1277.48031,0v5.66929" id="1/10th cm. Tick no. 338"/><path d="M1281.25984,0v5.66929" id="1/10th cm. Tick no. 339"/><path d="M1288.8189,0v5.66929" id="1/10th cm. Tick no. 341"/><path d="M1292.59843,0v5.66929" id="1/10th cm. Tick no. 342"/><path d="M1296.37795,0v5.66929" id="1/10th cm. Tick no. 343"/><path d="M1300.15748,0v5.66929" id="1/10th cm. Tick no. 344"/><path d="M1303.93701,0v5.66929" id="1/10th cm. Tick no. 345"/><path d="M1307.71654,0v5.66929" id="1/10th cm. Tick no. 346"/><path d="M1311.49606,0v5.66929" id="1/10th cm. Tick no. 347"/><path d="M1315.27559,0v5.66929" id="1/10th cm. Tick no. 348"/><path d="M1319.05512,0v5.66929" id="1/10th cm. Tick no. 349"/><path d="M1326.61417,0v5.66929" id="1/10th cm. Tick no. 351"/><path d="M1330.3937,0v5.66929" id="1/10th cm. Tick no. 352"/><path d="M1334.17323,0v5.66929" id="1/10th cm. Tick no. 353"/><path d="M1337.95276,0v5.66929" id="1/10th cm. Tick no. 354"/><path d="M1341.73228,0v5.66929" id="1/10th cm. Tick no. 355"/><path d="M1345.51181,0v5.66929" id="1/10th cm. Tick no. 356"/><path d="M1349.29134,0v5.66929" id="1/10th cm. Tick no. 357"/><path d="M1353.07087,0v5.66929" id="1/10th cm. Tick no. 358"/><path d="M1356.85039,0v5.66929" id="1/10th cm. Tick no. 359"/></g></svg>